<defs>
<font horiz-adv-x="468" ><font-face
    font-family="alegreyasc-regular"
    units-per-em="1000"
    panose-1="2 0 5 3 5 0 0 2 0 4"
    ascent="1016"
    descent="-345"
    alphabetic="0" />
<missing-glyph horiz-adv-x="202" />
<glyph unicode=" " glyph-name="space" horiz-adv-x="202" />
<glyph unicode="!" glyph-name="exclam" horiz-adv-x="285" d="M117 -12Q90 -12 76 4T61 45Q61 71 78 89T123 107Q150 107 165 91T180 50Q180 24 163 6T117 -12ZM106 210L98 666L105 676L188 694L197 683L145 209L117 202L106 210Z" />
<glyph unicode="&quot;" glyph-name="quotedbl" horiz-adv-x="298" d="M129 649L136 641Q122 531 101 429L76 415L65 417Q67 474 66 522T62 603L59 635L129 649ZM251 649L258 641Q244 531 223 429L198 415L187 417Q189 474 188 522T184 603L181 635L251 649Z" />
<glyph unicode="#" glyph-name="numbersign" horiz-adv-x="498" d="M51 362L48 372L63 409L170 408L207 568L247 573L255 567L216 407H269L322 406L359 568L399 573L407 567L368 406H476L480 397L461 361L357 362L348 323L332 252H439L443 243L424 207L322 208L286
43L247 35L240 41L277 209L207 210L171 209L134 43L95 35L88 41L125 209L14 208L11 218L26 255L135 254L148 311L160 363L51 362ZM196 323L180 253H232L287 252L300 311L312 363L244 364L206 363L196 323Z" />
<glyph unicode="$" glyph-name="dollar" horiz-adv-x="459" d="M282 649L268 507Q299 506 329 502T373 492L387 488L391 481Q377 420 372 349L333 345L327 349Q329 364 329 385Q329 418 314 434T263 454L247 288Q248 287 250 287Q280 273 293 267T332 245T368
217T390 185T400 144Q400 82 350 41T219 -8L206 -151L180 -154L175 -147L188 -9Q153 -9 121 -2T73 12L58 18L53 27Q64 90 64 162L109 166Q109 93 125 68T192 39L209 214Q199 218 195 221Q164 236 145 247T105 275T73 313T62 359Q62 418 111 459T236 506L250 654L276
658L282 649ZM318 116Q318 160 239 199L224 39Q267 42 292 62T318 116ZM139 386Q139 361 159 342T217 303L231 455Q191 453 165 434T139 386Z" />
<glyph unicode="%" glyph-name="percent" horiz-adv-x="671" d="M184 390Q219 390 246 409T273 477Q273 523 245 553T169 583Q129 583 106 559T82 496Q82 443 112 417T184 390ZM170 326Q107 326 71 369T35 482Q35 554 77 601T186 649Q251 649 285 605T320 500Q320
428 280 377T170 326ZM523 52Q558 52 585 71T612 139Q612 185 584 215T508 245Q468 245 445 221T421 158Q421 105 451 79T523 52ZM509 -12Q447 -12 411 31T374 144Q374 216 416 263T525 311Q590 311 624 267T659 162Q659 90 619 39T509 -12ZM587 659L592 645Q418
386 330 245L115 -95L77 -76L72 -64Q203 135 292 275L548 678L587 659Z" />
<glyph unicode="&amp;" glyph-name="ampersand" horiz-adv-x="623" d="M627 217L546 228Q529 124 453 56T276 -12Q167 -12 101 59T35 248Q35 335 86 399T208 464Q250 464 274 443T298 383Q298 374 296 365T292 352L289 347L293 345Q476 480 479 624L484 629H503Q536
564 536 539Q536 523 497 474Q452 408 370 346T105 174Q128 114 178 81T297 47Q380 47 430 97T489 236L433 244Q425 244 409 230T381 200L369 186H363L337 206V211L411 303L426 308Q445 308 522 296T621 283Q628 283 643 297T671 326L683 341H690L714 321L715 316L642
224L627 217ZM91 270Q91 243 96 213Q173 263 201 293T229 357Q229 379 217 391T184 404Q144 404 118 366T91 270Z" />
<glyph unicode="&apos;" glyph-name="quotesingle" horiz-adv-x="176" d="M129 649L136 641Q122 531 101 429L76 415L65 417Q67 474 66 522T62 603L59 635L129 649Z" />
<glyph unicode="(" glyph-name="parenleft" horiz-adv-x="309" d="M84 163V336Q84 405 103 462T150 553T205 609T252 640L272 649H276L289 620L288 616Q282 614 273 609T241 582T199 534T166 458T151 351V178Q151 116 165 63T201 -22T244 -75T280 -106L294 -115V-120L273
-146H269Q265 -145 259 -142T233 -127T196 -101T157 -60T121 -4T95 70T84 163Z" />
<glyph unicode=")" glyph-name="parenright" horiz-adv-x="309" d="M225 340V167Q225 98 206 41T159 -50T104 -106T56 -138L37 -146H33L20 -117L21 -113Q27 -111 36 -106T68 -79T110 -31T143 45T158 152V325Q158 387 144 440T108 525T65 578T30 610L15 618V623L36
649H40Q44 648 50 645T76 630T113 604T152 563T188 507T214 433T225 340Z" />
<glyph unicode="*" glyph-name="asterisk" horiz-adv-x="456" d="M86 666Q141 637 186 603L180 570L174 565L68 594Q68 632 77 662L86 666ZM91 473Q135 517 182 549L211 533L214 526Q200 507 185 484T162 448L154 434Q118 446 92 464L91 473ZM276 418Q248 474
232 528L256 551L264 552Q278 532 295 511T322 478L332 466Q310 436 285 417L276 418ZM385 577Q378 576 366 575T323 571T267 570L253 599L254 607Q277 614 303 624T343 640L357 646Q379 615 389 586L385 577ZM268 730Q257 669 239 616L205 611L199 615L194 725Q230
737 261 737L268 730Z" />
<glyph unicode="+" glyph-name="plus" horiz-adv-x="506" d="M274 500L284 494Q278 371 278 291L482 297L488 287L480 236L278 235L279 41L230 30L221 36Q222 147 222 235L24 234L18 243L29 292Q135 291 222 291L223 492L274 500Z" />
<glyph unicode="," glyph-name="comma" horiz-adv-x="238" d="M62 59L64 73Q98 99 122 99Q144 99 158 79T173 21Q173 -31 131 -77T33 -157L15 -142V-132Q50 -108 72 -75T94 -11Q94 29 62 59Z" />
<glyph unicode="-" glyph-name="hyphen" horiz-adv-x="324" d="M281 299L288 290L283 236L43 210L36 218L42 270L216 290L281 299Z" />
<glyph unicode="." glyph-name="period" horiz-adv-x="238" d="M116 -12Q89 -12 75 4T60 45Q60 71 77 89T122 107Q149 107 164 91T179 50Q179 24 162 6T116 -12Z" />
<glyph unicode="/" glyph-name="slash" horiz-adv-x="329" d="M287 675L295 665Q216 377 173 215L89 -110H41L34 -102Q87 74 126 226L241 675H287Z" />
<glyph unicode="0" glyph-name="zero" horiz-adv-x="533" d="M253 -12Q156 -12 97 56T38 235Q38 352 107 428T281 505Q376 505 435 438T495 263Q495 144 427 66T253 -12ZM271 64Q346 64 392 111T439 235Q439 318 389 371T260 424Q185 424 140 377T94 250Q94 167
143 116T271 64Z" />
<glyph unicode="1" glyph-name="one" horiz-adv-x="354" d="M219 404Q213 245 213 112Q213 72 223 58T262 44L315 47L317 43L308 -3Q224 0 175 0Q152 0 121 -3T69 -9L49 -12L55 34Q111 39 128 60T145 148V376Q145 411 133 422T91 433L38 427L35 430L39 472Q98
479 149 487Q229 500 248 505H250L256 488Q236 471 229 455T219 404Z" />
<glyph unicode="2" glyph-name="two" horiz-adv-x="475" d="M37 -12L27 6L106 94Q269 279 269 362Q269 398 249 418T194 438Q160 438 127 414T71 349H62L51 394Q76 442 124 473T220 505Q282 505 319 472T357 385Q357 340 312 274T144 68L148 61H301Q356 61 377
78T413 152L453 157Q432 73 424 0L412 -7Q177 0 91 0L37 -12Z" />
<glyph unicode="3" glyph-name="three" horiz-adv-x="415" d="M20 -32L25 -26Q67 -35 105 -35Q180 -35 231 3T282 98Q282 198 103 199L98 204L93 239L158 255Q198 274 223 306T249 372Q249 403 227 422T171 442Q143 442 112 428T57 391H47L37 433Q47 441 64 453T125
485T202 505Q261 505 296 475T332 393Q332 353 302 315T222 251V246Q357 214 357 122Q357 42 269 -31T84 -105Q50 -105 36 -88T20 -32Z" />
<glyph unicode="4" glyph-name="four" horiz-adv-x="447" d="M4 89L8 126L284 504H286L288 505L320 495V143H413L419 135L411 80Q374 81 320 83L327 -86L322 -93L251 -105L245 -96Q250 7 251 85Q97 89 4 89ZM242 367L81 143H251V367H242Z" />
<glyph unicode="5" glyph-name="five" horiz-adv-x="430" d="M364 128Q364 70 318 15T205 -73T79 -105Q48 -105 33 -90T16 -32L21 -26Q63 -35 102 -35Q182 -35 235 2T288 98Q288 147 242 175T79 224L70 235L87 479L95 487L284 495Q314 497 326 504T347 534L380
538L356 420L350 414Q247 422 131 422L124 296Q239 269 301 232T364 128Z" />
<glyph unicode="6" glyph-name="six" horiz-adv-x="455" d="M390 563Q382 560 368 554T315 525T244 473T179 397T131 294L135 292Q216 344 246 344Q327 344 373 294T419 180Q419 100 363 44T220 -12Q138 -12 89 47T40 197Q40 258 58 313T106 408T170 481T241 535T306
571T354 592L372 598L379 593L390 563ZM224 285Q173 285 123 248Q120 226 120 203Q120 127 152 82T240 36Q288 36 316 68T345 156Q345 208 311 246T224 285Z" />
<glyph unicode="7" glyph-name="seven" horiz-adv-x="420" d="M169 -105H162L102 -87L92 -65L342 425L169 418Q120 416 104 398T77 325L38 319Q52 416 57 492L63 497Q123 493 185 493H396L418 465Q315 258 194 -19L169 -105Z" />
<glyph unicode="8" glyph-name="eight" horiz-adv-x="485" d="M56 124Q56 229 185 289Q133 317 104 350T74 435Q74 500 125 549T254 598Q317 598 363 563T410 464Q410 372 311 319Q368 289 399 254T431 166Q431 92 372 40T227 -12Q156 -12 106 24T56 124ZM251
31Q296 31 329 61T362 137Q362 167 340 193T299 230T231 265Q224 269 220 271Q129 232 129 148Q129 101 164 66T251 31ZM144 465Q144 447 152 431T169 404T201 379T234 359T275 337Q335 373 335 443Q335 495 308 523T237 552Q196 552 170 526T144 465Z" />
<glyph unicode="9" glyph-name="nine" horiz-adv-x="455" d="M65 -70Q73 -67 87 -61T140 -32T211 19T276 95T323 198L320 201Q239 149 209 149Q128 149 82 199T36 313Q36 393 92 449T235 505Q317 505 366 446T415 296Q415 235 397 180T349 85T285 12T214 -42T149
-78T102 -99L83 -105L76 -100L65 -70ZM231 208Q278 208 332 245Q335 266 335 290Q335 366 303 411T215 457Q167 457 139 425T110 337Q110 284 144 246T231 208Z" />
<glyph unicode=":" glyph-name="colon" horiz-adv-x="238" d="M112 -12Q85 -12 71 4T56 45Q56 71 73 89T118 107Q145 107 160 91T175 50Q175 24 158 6T112 -12ZM112 268Q85 268 71 284T56 325Q56 351 73 369T118 387Q145 387 160 371T175 330Q175 304 158 286T112 268Z" />
<glyph unicode=";" glyph-name="semicolon" horiz-adv-x="238" d="M62 59L64 73Q98 99 122 99Q144 99 158 79T173 21Q173 -31 131 -77T33 -157L15 -142V-132Q50 -108 72 -75T94 -11Q94 29 62 59ZM112 268Q85 268 71 284T56 325Q56 351 73 369T118 387Q145 387
160 371T175 330Q175 304 158 286T112 268Z" />
<glyph unicode="&lt;" glyph-name="less" horiz-adv-x="506" d="M39 239L31 250L33 297L236 383L437 464L446 459L453 409Q341 370 259 336L105 276V270L273 200L454 121L455 110L425 70Q319 120 237 155L39 239Z" />
<glyph unicode="=" glyph-name="equal" horiz-adv-x="506" d="M482 220L488 210L480 159L253 158L24 157L18 166L29 215Q179 214 268 214L482 220ZM482 377L488 367L480 316L253 315L24 314L18 323L29 372Q179 371 268 371L482 377Z" />
<glyph unicode="&gt;" glyph-name="greater" horiz-adv-x="506" d="M467 295L475 284L473 237L270 151L69 70L60 75L53 125Q165 164 247 198L401 258V264L233 334L52 413L51 424L81 464Q187 414 269 379L467 295Z" />
<glyph unicode="?" glyph-name="question" horiz-adv-x="360" d="M108 203L84 323L87 337L206 413Q263 452 263 499Q263 614 60 626L58 637L91 690L105 694Q198 691 263 644T329 529Q329 497 320 472T291 425T255 391T208 358T163 328L160 319L181 224L178 216L117
199L108 203ZM143 -12Q116 -12 102 4T87 45Q87 71 104 89T149 107Q176 107 191 91T206 50Q206 24 189 6T143 -12Z" />
<glyph unicode="@" glyph-name="at" horiz-adv-x="832" d="M477 -12Q441 -12 441 17Q441 25 451 77T473 177L484 225L478 227Q388 56 291 -12Q252 -12 232 25T211 124Q211 206 246 285T334 412T440 460L540 444L549 469L554 470L585 455L593 443Q535 244 509 58L513
54Q619 54 674 115T730 280Q730 410 650 483T435 557Q287 557 196 455T104 206Q104 51 192 -52T457 -166V-173L431 -209Q243 -200 138 -88T33 188Q33 270 63 346T148 482T283 577T460 613Q609 613 704 525T799 304Q799 174 714 81T477 -12ZM310 69Q337 69 395 156T510
373Q456 406 409 406Q361 406 321 335T281 173Q281 131 289 100T310 69Z" />
<glyph unicode="A" glyph-name="A" horiz-adv-x="578" d="M493 113Q505 76 525 61T589 42L591 38L584 -3Q512 0 478 0T407 -2T349 -8L329 -10L326 -3L330 36Q381 40 400 48T419 74Q419 94 410 122L377 231Q353 232 273 232Q225 232 164 224L127 120Q118 93 118
81Q118 40 178 40H235L237 36L231 -7Q158 0 92 0L-18 -3L-10 44Q18 47 35 63T68 121L263 632L326 649H334Q418 338 493 113ZM277 540L182 273H270Q306 273 363 278L284 540H277Z" />
<glyph unicode="B" glyph-name="B" horiz-adv-x="597" d="M172 0Q150 0 122 -3T76 -9L58 -12L64 34Q110 43 126 60T142 120L143 540Q143 572 136 583T106 594L72 592L70 596L77 640Q150 637 188 637L306 641Q401 641 452 602T503 489Q503 439 473 399T387 335Q460
319 501 279T542 183Q542 105 472 48T307 -10Q286 -10 242 -5T172 0ZM321 300L217 298L213 111Q213 73 239 57T327 41Q387 41 421 74T456 165Q456 276 321 300ZM219 351Q313 343 328 343Q332 344 338 346T360 357T389 380T412 417T422 472Q422 536 379 567T246
598Q236 598 233 594T228 575Q222 479 219 351Z" />
<glyph unicode="C" glyph-name="C" horiz-adv-x="629" d="M339 -12Q202 -12 121 71T40 297Q40 449 139 549T389 649Q426 649 469 643T538 631L563 625L567 619Q548 544 542 452L494 448Q497 475 497 497Q497 590 350 590Q249 590 190 520T130 330Q130 198 192
118T359 38Q427 38 468 76T529 196L577 200Q557 109 550 37L544 28Q458 -12 339 -12Z" />
<glyph unicode="D" glyph-name="D" horiz-adv-x="703" d="M317 -12Q224 0 173 0Q151 0 122 -3T76 -9L58 -12L64 34Q110 43 126 60T142 120L143 540Q143 572 136 583T106 594L72 592L70 596L77 640Q144 637 182 637L334 641Q480 641 571 558T663 342Q663 193 563
91T317 -12ZM265 592Q244 592 237 588T229 570Q214 185 214 131Q214 76 239 58T340 39Q448 39 510 113T572 318Q572 450 493 521T265 592Z" />
<glyph unicode="E" glyph-name="E" horiz-adv-x="591" d="M213 105Q213 64 225 55T292 45Q376 45 411 53T461 85T485 167L529 172L532 167Q514 84 505 -1L500 -7Q292 0 197 0Q163 0 129 -2T76 -8L58 -10L64 36Q109 42 125 59T142 120L143 540Q143 572 136 583T106
594L72 592L70 596L77 640Q156 637 216 637Q428 637 516 649L519 643Q502 569 496 477L448 473Q450 502 450 516Q450 565 427 576T297 587Q248 587 238 582T227 548L219 354Q229 354 267 354T322 353L444 364L448 359L434 300Q348 303 294 303Q257 303 217 296Q213
152 213 105Z" />
<glyph unicode="F" glyph-name="F" horiz-adv-x="512" d="M213 112Q213 71 222 58T257 44L328 47L330 43L321 -4Q226 0 172 0Q150 0 122 -3T76 -9L58 -12L64 34Q110 43 126 60T142 120L143 540Q143 572 136 583T106 594L72 592L70 596L77 640Q156 637 216 637Q413
637 497 649L500 643Q483 566 477 474L429 470Q431 502 431 516Q431 565 410 576T297 587Q248 587 238 582T227 548L219 337L322 336L427 347L431 342L417 282Q341 285 294 285Q257 285 217 278L213 112Z" />
<glyph unicode="G" glyph-name="G" horiz-adv-x="667" d="M588 307L592 285Q574 270 568 238T561 131Q561 73 568 43L562 34Q550 29 530 22T449 1T332 -12Q198 -12 119 71T40 297Q40 454 137 551T391 649Q428 649 476 643T555 631L585 625L589 619Q569 544 563
452L516 448Q519 475 519 502Q519 548 484 569T368 590Q254 590 191 522T127 329Q127 197 189 118T355 38Q391 38 425 47T476 66L492 76V198Q492 232 482 242T437 252H368L366 256L375 306Q443 302 502 302L588 307Z" />
<glyph unicode="H" glyph-name="H" horiz-adv-x="754" d="M620 544Q606 252 606 112Q606 71 615 58T650 44L695 47L697 43L688 -3Q609 0 565 0L450 -2L459 43Q506 44 520 64T535 150V301Q429 302 383 302L217 291L213 112Q213 71 222 58T257 44L302 47L304 43L295
-3Q295 0 210 0Q166 0 113 -4T58 -12L64 34Q110 43 126 60T142 120L143 540Q143 572 136 583T106 594L72 592L70 596L77 640Q150 637 188 637Q207 637 234 639T278 644L295 646L291 601Q248 594 238 580T225 511L219 349L387 348Q451 348 535 358L536 540Q536 572
529 583T499 594L465 592L463 596L470 640Q470 637 568 637Q589 637 619 639T668 644L688 646L684 601Q647 596 635 585T620 544Z" />
<glyph unicode="I" glyph-name="I" horiz-adv-x="361" d="M227 544Q213 254 213 112Q213 71 222 58T257 44L310 47L312 43L303 -3Q219 0 172 0Q149 0 120 -3T74 -9L56 -12L62 34Q109 43 125 60T142 120L143 540Q143 572 136 583T106 594L64 592L62 596L69 640Q147
637 188 637Q208 637 237 639T284 644L303 646L299 601Q257 596 243 585T227 544Z" />
<glyph unicode="J" glyph-name="J" horiz-adv-x="327" d="M131 115L132 540Q132 572 125 582T95 593L48 589L46 593L53 637H161L277 646L273 601Q238 596 228 586T216 544Q205 306 203 116Q202 14 164 -47T40 -144L23 -111L26 -103Q87 -66 109 -21T131 115Z" />
<glyph unicode="K" glyph-name="K" horiz-adv-x="628" d="M142 120L143 540Q143 572 136 583T106 594L72 592L70 596L77 640Q150 637 188 637Q207 637 234 639T278 644L295 646L291 601Q254 595 240 583T225 541L213 112Q212 72 221 58T257 44L302 47L304 43L295
-3Q216 0 172 0L57 -1L67 44Q114 49 128 63T142 120ZM242 315L243 329L422 515Q453 546 453 567Q453 593 390 597L388 601L395 644Q468 637 505 637L597 641L601 634L594 593Q568 588 546 572T479 509L318 340L486 121Q522 74 550 55T614 36L618 32L612 -2Q540
-14 529 -14Q479 -14 417 72L242 315Z" />
<glyph unicode="L" glyph-name="L" horiz-adv-x="507" d="M202 0Q169 0 136 -2T85 -8L68 -10L74 36Q113 42 127 59T142 120L143 540Q143 572 136 583T106 594L72 592L70 596L77 640Q151 637 189 637Q208 637 235 639T279 644L296 646L292 601Q281 599 273 598T258
593T247 589T239 581T234 572T231 560T229 546T227 528T226 508Q214 341 214 122Q214 71 228 58T299 45Q386 45 413 70T458 187L502 192L505 187Q487 96 476 -3L471 -9Q297 0 202 0Z" />
<glyph unicode="M" glyph-name="M" horiz-adv-x="847" d="M421 -12L397 -19L203 520H198Q164 101 164 75Q164 44 195 44L236 45L238 41L229 -4Q165 0 132 0Q114 0 93 -2T58 -6L46 -8L51 38Q83 42 97 58T115 115Q159 516 159 547Q159 573 139 586T72 602L69 607L77
642Q154 637 186 637L254 641Q294 512 336 388T401 204L423 145H428Q506 353 601 639L613 638Q625 638 642 638T667 637L775 643L777 639L772 602Q729 597 711 585T693 547Q693 470 719 139Q726 80 735 62T768 44L796 46L798 42L789 -3Q730 0 694 0L590 -8L594
38Q653 45 653 88L619 520H614L421 -12Z" />
<glyph unicode="N" glyph-name="N" horiz-adv-x="719" d="M551 145H556V550Q556 593 523 593L485 592L483 596L492 641Q553 637 587 637Q606 637 630 639T670 643L686 645L681 599Q646 594 630 580T613 536L599 -26L570 -40Q483 95 390 233T248 441L198 511H193L188
84Q188 62 195 53T219 44L270 45L272 41L263 -4Q200 0 157 0Q139 0 116 -2T78 -6L64 -8L69 38Q130 45 131 101L144 538Q144 569 126 582T57 600L54 605L62 642Q120 637 148 637L215 641Q289 526 373 402T504 212L551 145Z" />
<glyph unicode="O" glyph-name="O" horiz-adv-x="692" d="M348 39Q443 39 503 111T563 299Q563 427 500 508T335 589Q242 589 184 517T126 329Q126 201 188 120T348 39ZM317 -12Q194 -12 117 74T40 297Q40 445 135 547T369 649Q494 649 573 563T652 341Q652 192
556 90T317 -12Z" />
<glyph unicode="P" glyph-name="P" horiz-adv-x="551" d="M70 596L77 640Q150 637 188 637L314 641Q418 641 473 595T528 463Q528 378 458 311T299 244H215L213 146Q213 78 220 61T257 44L311 47L313 43L304 -3Q304 0 212 0Q172 0 119 -3T63 -8L70 38Q114 46 128
61T142 120L143 540Q143 572 136 583T106 594L72 592L70 596ZM217 303L323 288Q444 308 444 444Q444 521 399 556T256 592Q238 592 234 590T229 578Q220 451 217 303Z" />
<glyph unicode="Q" glyph-name="Q" horiz-adv-x="697" d="M317 -12Q194 -12 117 74T40 297Q40 445 135 547T369 649Q494 649 573 563T652 341Q652 218 584 124T407 0V-5Q513 -77 583 -107T714 -137Q735 -137 755 -135T784 -130L794 -127L798 -130L804 -148Q729
-216 709 -216Q638 -216 567 -179T317 -12ZM348 39Q443 39 503 111T563 299Q563 427 500 508T335 589Q242 589 184 517T126 329Q126 201 188 120T348 39Z" />
<glyph unicode="R" glyph-name="R" horiz-adv-x="611" d="M299 273H216L213 124Q213 70 225 56T285 42L287 38L278 -4Q278 -3 172 -1L57 -4L66 41Q113 46 127 61T142 120L143 540Q143 572 136 583T106 594L72 592L70 596L77 640Q150 637 188 637L311 641Q404 641
458 599T512 484Q512 424 474 374T365 292L475 118Q504 70 531 52T599 33L603 29L597 -5L512 -16Q487 -16 459 9T406 79L299 273ZM218 329L321 319Q325 320 332 322T358 336T391 363T417 405T429 466Q429 598 246 598Q236 598 233 594T228 575Q219 422 218 329Z"
/>
<glyph unicode="S" glyph-name="S" horiz-adv-x="530" d="M219 -12Q177 -12 138 -4T80 14L62 22L57 32Q69 109 69 206L114 211Q114 103 138 70T244 37Q307 37 345 66T383 147Q383 169 372 188T339 225T295 254T241 283Q234 286 231 288Q193 308 171 321T121 357T81
406T68 463Q68 542 134 595T298 649Q338 649 376 643T432 630L451 624L454 618Q438 541 432 449L393 445L387 450Q390 471 390 502Q390 555 364 575T271 595Q216 595 181 568T145 499Q145 459 179 430T281 365Q380 314 412 286Q466 240 466 183Q466 97 397 43T219
-12Z" />
<glyph unicode="T" glyph-name="T" horiz-adv-x="546" d="M233 162V598Q186 596 166 595T122 588T92 577T76 555T64 522T56 472L9 468Q21 556 24 641L33 649L116 638H426L511 649L520 641Q521 603 525 561T532 496L535 472L488 468Q482 503 479 519T467 553T451
576T423 587T381 595T319 598Q303 438 303 112Q303 75 316 60T360 44L415 47L418 43L409 -3Q309 0 262 0L125 -4L133 39Q203 45 218 63T233 162Z" />
<glyph unicode="U" glyph-name="U" horiz-adv-x="681" d="M184 250Q184 151 227 98T351 45Q433 45 476 88T519 214L513 540Q511 575 505 584T476 594L433 592L431 596L438 640Q513 637 551 637Q570 637 594 639T634 644L648 646L644 601Q600 595 588 585T575 544V208Q575
103 510 46T327 -12Q222 -12 165 45T108 209V540Q108 572 101 583T71 594L37 592L35 596L42 640Q117 637 155 637Q174 637 200 639T244 644L260 646L256 601Q219 596 207 585T192 544L184 250Z" />
<glyph unicode="V" glyph-name="V" horiz-adv-x="610" d="M85 536Q67 592 -7 593L-9 597L-2 640Q80 637 114 637Q138 637 175 639T238 645L264 648L267 641L263 602Q209 598 192 590T174 560Q174 546 205 430T268 206L300 97H309Q475 525 475 557Q475 597 406
597H354L352 601L358 644Q435 637 501 637L611 640L603 593Q572 592 560 583T537 545L322 5L258 -17Q169 276 85 536Z" />
<glyph unicode="W" glyph-name="W" horiz-adv-x="932" d="M650 5L588 -17Q531 188 463 407H457L315 5L251 -17Q168 277 84 536Q66 592 -6 593Q-6 594 -6 595T-7 597L-1 640Q79 637 112 637Q144 637 180 639T236 645L257 648L260 641L256 602Q205 598 188 590T170
561Q170 544 201 428T262 204L293 97H299L440 481L422 536Q412 565 391 578T332 593L330 597L337 640Q417 637 450 637Q477 637 513 639T572 645L595 648L598 641L594 602Q542 598 525 590T507 560Q507 545 538 430T600 206L631 97H637Q799 534 799 562Q799 597
731 597H681L679 601L686 644Q761 637 825 637L931 640L924 593Q894 591 882 583T860 545L650 5Z" />
<glyph unicode="X" glyph-name="X" horiz-adv-x="656" d="M181 182L291 318L160 514Q112 585 23 597L21 601L27 640Q125 637 171 637Q206 637 240 639T290 643L306 645L309 638L306 603Q228 597 228 567Q228 549 341 377Q351 391 371 417T407 464T438 507T463
546T472 571Q472 595 414 601L412 605L418 644Q491 637 528 637L625 641L629 634L623 597Q580 588 556 569T487 493L366 340L512 127Q539 87 570 68T649 44L651 40L644 -3Q566 0 520 0L365 -8L362 -1L366 38Q444 42 444 73Q444 88 424 117L315 281L223 159Q192
118 182 101T172 70Q172 44 230 40L232 36L225 -7Q152 0 115 0L16 -4L12 3L19 44Q60 56 95 87T181 182Z" />
<glyph unicode="Y" glyph-name="Y" horiz-adv-x="538" d="M163 567Q163 554 191 490T246 367T275 309H280L394 521Q410 550 410 571Q410 597 347 601L345 605L351 644Q425 637 462 637L554 641L558 634L552 597Q506 588 487 569T431 485Q425 473 421 467L321 291Q311
273 307 248T301 204T299 112Q298 73 307 59T343 44L392 47L394 43L385 -3Q302 0 258 0Q236 0 208 -3T162 -9L144 -12L150 34Q202 44 215 64T228 142V186Q228 241 199 299L109 482Q75 552 61 567Q38 592 -17 597L-19 601L-13 640Q51 637 97 637L239 645L242 638L239
603Q194 599 179 592T163 567Z" />
<glyph unicode="Z" glyph-name="Z" horiz-adv-x="568" d="M495 13L480 -3L118 3L48 -3L34 29L407 593L234 587Q165 584 136 555T99 449L52 445Q68 548 70 640L80 649L255 638L513 631L524 602Q333 348 138 40L341 47Q393 48 425 88T473 213L520 218Q500 109 495 13Z" />
<glyph unicode="[" glyph-name="bracketleft" horiz-adv-x="309" d="M278 -137L96 -126Q107 150 107 250L96 629L280 640L284 634L278 603L164 579V-76L280 -100L284 -107L278 -137Z" />
<glyph unicode="\" glyph-name="backslash" horiz-adv-x="329" d="M37 665L45 675H91L206 226Q223 158 246 76T284 -54L298 -102L291 -110H243Q201 50 159 215L37 665Z" />
<glyph unicode="]" glyph-name="bracketright" horiz-adv-x="309" d="M31 640L213 629Q202 353 202 253L213 -126L29 -137L25 -131L31 -100L145 -76V579L29 603L25 610L31 640Z" />
<glyph unicode="^" glyph-name="asciicircum" horiz-adv-x="506" d="M270 481L281 473Q333 348 365 275L450 87L410 57L399 58Q356 157 320 239L250 407H244L184 253L111 59L61 66L56 75Q98 185 137 276L223 479L270 481Z" />
<glyph unicode="_" glyph-name="underscore" horiz-adv-x="458" d="M458 -81L464 -91L456 -142Q361 -142 183 -143T0 -144L-6 -135L5 -86Q155 -87 244 -87Q315 -87 381 -84Q458 -82 458 -81Z" />
<glyph unicode="`" glyph-name="grave" horiz-adv-x="398" d="M72 660L71 671L109 712L119 714Q197 620 269 542L249 523L240 521Q203 555 161 589T96 642L72 660Z" />
<glyph unicode="a" glyph-name="a" horiz-adv-x="506" d="M427 93Q437 64 452 53T502 38L504 34L499 -2Q438 0 408 0Q379 0 348 -1T299 -5L282 -7L279 -2L282 34Q324 37 338 43T353 63Q353 79 346 97L322 174Q302 175 239 175Q210 175 153 169L125 95Q118 72 118
67Q118 37 165 37H208L211 33L205 -5Q144 0 90 0L-2 -2L4 39Q26 42 39 54T65 97L222 494L293 507L300 506Q370 254 427 93ZM242 414L169 216H237Q272 216 310 220L249 414H242Z" />
<glyph unicode="b" glyph-name="b" horiz-adv-x="518" d="M154 0Q135 0 110 -2T70 -6L54 -9L59 32Q96 39 109 52T122 98L123 418Q123 442 117 450T94 459L66 458L63 462L69 500Q136 498 166 498L270 502Q349 502 392 471T435 382Q435 342 410 310T342 262Q397
251 431 221T466 145Q466 81 408 37T268 -8Q253 -8 215 -4T154 0ZM279 229L196 228L193 92Q193 64 213 53T282 41Q329 41 355 65T382 131Q382 211 279 229ZM198 278Q271 272 284 272Q287 273 292 274T309 283T330 299T348 327T356 367Q356 458 219 458Q211 458
209 455T205 441Q200 378 198 278Z" />
<glyph unicode="c" glyph-name="c" horiz-adv-x="536" d="M286 -9Q173 -9 107 56T41 233Q41 354 121 430T328 507Q358 507 394 503T452 493L474 488L478 482Q462 422 457 346L407 343Q409 363 409 382Q409 452 297 452Q219 452 174 401T129 259Q129 159 176 100T304
41Q407 41 434 159L484 163Q468 89 463 30L457 22Q385 -9 286 -9Z" />
<glyph unicode="d" glyph-name="d" horiz-adv-x="596" d="M271 -9Q195 0 152 0Q133 0 109 -2T70 -6L55 -9L60 33Q96 39 109 53T122 99L123 417Q123 442 117 450T94 459L66 457L64 462L70 500Q129 498 160 498L286 501Q408 501 481 438T555 268Q555 150 474 71T271
-9ZM233 454Q217 454 212 451T205 436Q193 155 193 106Q193 66 212 53T288 39Q372 39 419 94T467 248Q467 349 407 401T233 454Z" />
<glyph unicode="e" glyph-name="e" horiz-adv-x="508" d="M193 90Q193 58 202 51T254 43Q319 43 346 49T386 74T405 137L449 141L453 136Q438 70 431 0L425 -5Q259 0 175 0Q146 0 116 -2T70 -6L54 -8L59 34Q96 38 109 52T122 100L123 417Q123 442 117 450T93 459L66
458L64 462L70 500Q141 498 193 498Q360 498 440 507L443 502Q429 440 424 368L376 364Q378 386 378 397Q378 434 359 442T258 451Q221 451 213 447T204 422L198 280Q206 280 236 280T280 279L379 287L383 282L371 230Q302 232 259 232Q231 232 196 227Q193 151
193 90Z" />
<glyph unicode="f" glyph-name="f" horiz-adv-x="446" d="M193 95Q193 64 200 54T229 43L285 46L288 41L281 -3Q201 0 157 0Q137 0 111 -2T70 -6L54 -9L59 32Q97 39 109 52T122 100L123 417Q123 442 117 450T93 459L66 458L64 462L70 500Q141 498 193 498Q348
498 423 507L427 502Q413 438 408 366L360 363Q362 387 362 397Q362 433 345 442T258 451Q221 451 213 447T204 422L197 267L280 266L366 274L370 269L359 216Q297 218 259 218Q231 218 196 213L193 95Z" />
<glyph unicode="g" glyph-name="g" horiz-adv-x="566" d="M495 246L499 224Q483 212 478 187T472 101Q472 56 477 33L472 25Q390 -9 282 -9Q172 -9 107 56T41 233Q41 357 120 432T330 507Q361 507 401 503T466 493L490 488L494 482Q477 422 473 348L424 344Q426
365 426 386Q426 421 399 436T311 452Q222 452 175 403T127 259Q127 158 174 100T301 41Q329 41 355 47T393 60L405 67V155Q405 180 397 188T362 196H309L307 200L315 244Q316 244 333 244T375 243T421 242L495 246Z" />
<glyph unicode="h" glyph-name="h" horiz-adv-x="639" d="M524 420Q513 226 513 93Q513 61 520 51T548 40L583 42L586 38L578 -2Q513 0 473 0L373 -1L381 39Q418 39 430 54T442 118V230Q362 231 327 231L196 223L193 93Q193 61 200 50T228 39L263 42L265 38L258
-2Q210 0 180 0Q143 0 99 -3T54 -9L59 32Q96 39 109 52T122 99L123 417Q123 442 117 450T93 459L66 458L63 462L69 500Q130 498 162 498L259 505L255 464Q221 459 213 448T202 398L197 277L327 276Q380 276 442 283L443 417Q443 442 437 450T413 459L385 458L383
462L389 500Q389 498 475 498L579 505L576 464Q545 460 535 452T524 420Z" />
<glyph unicode="i" glyph-name="i" horiz-adv-x="319" d="M204 420Q193 224 193 93Q193 61 200 50T228 39L269 42L271 38L264 -2Q191 0 153 0Q134 0 109 -2T68 -6L53 -9L58 32Q96 39 109 52T122 99L123 417Q123 442 117 450T93 459L60 458L58 462L63 500Q65 500
83 500T126 499T165 498L265 505L261 464Q228 460 217 452T204 420Z" />
<glyph unicode="j" glyph-name="j" horiz-adv-x="292" d="M113 92L114 417Q114 442 108 450T84 458L47 456L44 460L50 498H142L245 505L241 464Q213 460 205 452T195 420Q185 187 185 87Q184 8 151 -40T43 -115L27 -87L29 -80Q78 -50 95 -15T113 92Z" />
<glyph unicode="k" glyph-name="k" horiz-adv-x="543" d="M122 99L123 417Q123 442 117 450T93 459L66 458L63 462L69 500Q136 498 165 498L259 505L256 464Q225 459 214 450T202 418L193 93Q192 61 199 50T228 39L263 42L265 38L258 -2Q189 0 153 0L54 -1L62
39Q100 43 111 54T122 99ZM215 246L216 259L356 398Q380 420 380 437Q380 458 331 461L329 465L335 503Q397 498 428 498L509 501L513 495L507 459Q485 453 466 439T409 386L289 267L419 101Q448 65 470 50T521 34L525 29L520 -2Q455 -11 445 -11Q401 -11 353 55L215
246Z" />
<glyph unicode="l" glyph-name="l" horiz-adv-x="442" d="M179 0Q151 0 122 -2T76 -6L61 -8L67 34Q99 39 110 52T122 100L123 417Q123 442 117 450T93 459L66 458L63 462L69 500Q70 500 87 500T128 499T166 498L263 505L259 463Q233 460 222 453T209 438T204 405Q203
399 203 396Q193 262 193 99Q193 63 204 53T258 43Q326 43 348 63T383 157L427 162L430 156Q416 81 407 -1L402 -7Q261 0 179 0Z" />
<glyph unicode="m" glyph-name="m" horiz-adv-x="715" d="M360 -8L331 -14Q230 260 180 387H175Q150 84 150 64Q150 40 176 40H208L210 37L203 -3Q146 0 118 0L45 -6L49 35Q75 38 86 50T101 94Q136 374 136 423Q136 443 121 452T67 464L64 469L71 502Q137 498
164 498L229 501Q259 408 291 317T340 180L358 136H363Q424 292 496 499Q502 499 511 499T537 499T562 498L649 503L651 500L646 465Q611 461 597 452T583 422Q583 353 604 113Q609 68 617 54T644 40L667 41L669 38L662 -2Q613 0 582 0Q573 0 560 0T535 -2T513
-4T495 -6H488L492 35Q518 38 529 47T540 74L515 387H510Q451 236 360 -8Z" />
<glyph unicode="n" glyph-name="n" horiz-adv-x="614" d="M457 136H462L461 425Q461 458 434 458H404L402 462L409 501Q464 498 494 498L579 504L575 463Q521 456 520 413L508 -17L469 -28Q401 71 329 172T218 324L180 375H175L172 72Q172 53 178 46T198 39L238
40L241 37L233 -3Q177 0 142 0L59 -6L64 35Q113 41 114 84L125 414Q125 439 111 448T55 463L51 468L58 502Q107 498 134 498L195 501Q252 417 317 326T420 185L457 136Z" />
<glyph unicode="o" glyph-name="o" horiz-adv-x="585" d="M295 39Q368 39 413 91T458 231Q458 331 410 391T284 451Q213 451 170 399T126 260Q126 160 172 100T295 39ZM271 -9Q168 -9 105 57T41 233Q41 351 118 429T311 507Q416 507 480 441T544 266Q544 148 466
70T271 -9Z" />
<glyph unicode="p" glyph-name="p" horiz-adv-x="479" d="M63 462L69 500Q70 500 87 500T126 499T163 498L272 501Q362 501 407 463T453 359Q453 291 395 239T263 186H194L193 116Q193 66 199 53T229 40L272 42L274 38L266 -2Q212 0 184 0Q151 0 105 -2T58 -6L64
35Q99 41 110 53T122 99L123 417Q123 442 117 450T94 459L66 458L63 462ZM196 240L279 229Q372 244 372 345Q372 401 337 427T226 454Q212 454 209 453T205 442Q197 315 196 240Z" />
<glyph unicode="q" glyph-name="q" horiz-adv-x="590" d="M271 -9Q168 -9 105 57T41 233Q41 351 118 429T311 507Q416 507 480 441T544 266Q544 172 491 101T352 4V-1Q506 -99 596 -99Q613 -99 629 -97T654 -93L663 -91L667 -95L673 -115Q605 -172 587 -172Q529
-172 472 -143T271 -9ZM295 39Q368 39 413 91T458 231Q458 331 410 391T284 451Q213 451 170 399T126 260Q126 160 172 100T295 39Z" />
<glyph unicode="r" glyph-name="r" horiz-adv-x="529" d="M260 208H195L193 101Q193 60 202 50T252 38L254 35L246 -3Q246 -1 154 -1L54 -4L61 37Q98 42 110 54T122 99L123 418Q123 442 117 450T94 459L66 458L63 462L69 500Q132 498 163 498L270 501Q351 501
397 468T443 375Q443 329 412 290T325 226L410 98Q434 62 456 47T509 32L513 27L508 -4L431 -12Q384 -12 344 61L260 208ZM197 260L278 252Q324 270 344 299Q362 325 362 361Q362 458 219 458Q205 458 205 440Q197 318 197 260Z" />
<glyph unicode="s" glyph-name="s" horiz-adv-x="459" d="M191 -9Q156 -9 123 -3T74 11L58 18L53 27Q64 90 64 162L109 166Q109 88 129 64T211 39Q259 39 288 60T318 116Q318 132 311 145T282 173T250 193T207 215Q199 219 195 221Q164 236 145 247T105 275T73
313T62 359Q62 423 118 465T258 507Q291 507 323 503T372 493L387 488L391 481Q377 420 372 349L333 345L327 349Q329 364 329 385Q329 424 309 439T236 455Q194 455 167 436T139 386T166 335T250 287Q280 273 293 267T332 245T368 217T390 185T400 144Q400 76
342 34T191 -9Z" />
<glyph unicode="t" glyph-name="t" horiz-adv-x="474" d="M199 127V458Q119 455 101 446Q77 434 68 383Q66 372 64 358L17 355Q27 431 29 500L37 507L108 499H363L436 507L444 500Q445 469 447 434T452 378L455 358L409 355Q405 382 402 397T391 425T378 443T354
452T325 456T281 458Q268 337 268 93Q268 64 279 52T315 40L359 42L362 39L355 -3Q268 0 229 0L110 -4L117 36Q174 40 186 55T199 127Z" />
<glyph unicode="u" glyph-name="u" horiz-adv-x="575" d="M169 191Q169 120 202 82T297 43Q425 43 425 166L421 417Q419 444 414 451T392 459L358 458L357 461L363 500Q425 498 456 498L540 504L537 464Q502 459 492 451T482 421V165Q482 82 429 37T277 -9Q188
-9 142 35T95 162V417Q95 442 89 450T65 459L38 458L36 461L42 500Q106 498 141 498L230 504L226 464Q197 460 187 451T175 420L169 191Z" />
<glyph unicode="v" glyph-name="v" horiz-adv-x="525" d="M78 413Q64 456 6 459L4 462L10 500Q77 498 107 498L234 506L237 500L234 464Q190 461 177 455T163 433Q163 421 187 334T235 166L259 84H268Q303 168 349 292T396 432Q396 461 343 461H303L301 465L306
503Q370 498 424 498L516 500L509 459Q485 458 476 451T457 420L288 4L214 -13Q141 228 78 413Z" />
<glyph unicode="w" glyph-name="w" horiz-adv-x="793" d="M561 4L490 -13Q482 35 395 301H390L281 4L209 -13Q140 228 77 413Q63 456 7 459Q7 460 5 462L11 500Q76 498 105 498Q132 498 162 500T210 504L228 506L231 500L227 464Q185 461 172 455T159 433Q159
420 182 333T230 164L253 84H259Q279 133 318 241T369 378Q367 384 365 390T360 405T356 417Q349 439 333 448T285 459L283 462L289 500Q357 498 387 498Q410 498 440 500T490 504L509 506L512 500L509 464Q467 461 454 455T440 433Q440 421 463 334T510 166L534
84H541Q573 162 619 290T665 435Q665 449 654 455T613 461H575L573 465L579 503Q642 498 693 498L782 500L776 459Q753 457 744 450T726 420L561 4Z" />
<glyph unicode="x" glyph-name="x" horiz-adv-x="566" d="M155 146L243 251L140 395Q102 450 30 460L28 464L33 500Q110 498 154 498L269 504L271 498L268 465Q208 462 208 439Q208 424 296 300Q302 309 334 348T382 410T397 442Q397 460 351 464L349 467L354
503Q355 503 372 502T412 499T449 498L532 501L535 495L530 461Q494 452 474 437T419 379L323 261L437 105Q481 45 548 40L550 37L544 -2Q478 0 441 0L309 -6L306 0L309 35Q369 38 369 61Q369 71 353 93L268 212L198 124Q160 77 160 60Q160 40 205 37L208 33L202
-5Q138 0 108 0L23 -3L20 3L25 40Q57 49 86 74T155 146Z" />
<glyph unicode="y" glyph-name="y" horiz-adv-x="475" d="M158 438Q158 422 244 250H249L335 404Q348 427 348 442Q348 461 299 464L297 467L302 503Q304 503 321 502T361 499T398 498L476 501L479 495L474 461Q436 453 420 436T368 360L287 222Q276 203 274 180T270
92Q269 63 277 52T307 40L347 42L349 39L341 -3Q267 0 229 0Q210 0 185 -2T143 -6L127 -9L133 32Q176 39 187 54T199 113V144Q199 186 175 230L100 374Q81 410 73 422T47 446T-1 460L-3 464L3 500Q60 498 97 498L217 504L220 498L217 465Q183 463 171 458T158 438Z"
/>
<glyph unicode="z" glyph-name="z" horiz-adv-x="490" d="M424 11L411 -2L108 2L49 -3L36 25L337 456L205 451Q149 448 127 426T98 347L52 343Q65 428 66 500L75 508L219 499L437 494L448 469Q267 241 137 39L293 46Q335 48 360 78T398 172L445 177Q428 86 424 11Z" />
<glyph unicode="{" glyph-name="braceleft" horiz-adv-x="309" d="M46 247L50 268Q90 279 116 300T143 351Q143 372 123 437T102 533Q102 582 135 615T228 649L285 643L288 638L280 608Q251 613 234 613Q203 613 188 594T173 544Q173 522 186 457T200 365Q200
289 127 265V259Q200 232 200 154Q200 127 187 60T173 -29Q173 -59 188 -78T235 -97L285 -91L288 -97L280 -125Q256 -133 226 -133Q169 -133 136 -100T102 -17Q102 15 122 78T143 159Q143 225 46 247Z" />
<glyph unicode="|" glyph-name="bar" horiz-adv-x="372" d="M214 807L225 801Q219 457 219 291L220 -258L161 -269L152 -263Q152 97 153 276L154 796L214 807Z" />
<glyph unicode="}" glyph-name="braceright" horiz-adv-x="309" d="M263 269L259 248Q219 237 193 216T166 165Q166 144 186 79T207 -17Q207 -66 174 -99T81 -133L24 -127L21 -122L29 -92Q58 -97 75 -97Q106 -97 121 -78T136 -28Q136 -6 123 59T109 151Q109 227
182 251V257Q109 284 109 362Q109 389 122 456T136 545Q136 575 121 594T74 613L24 607L21 613L29 641Q53 649 83 649Q140 649 173 616T207 533Q207 501 187 438T166 357Q166 291 263 269Z" />
<glyph unicode="~" glyph-name="asciitilde" horiz-adv-x="506" d="M71 202H65L43 223V228L119 317L135 321Q163 321 258 300T375 278Q386 278 401 292T428 320L438 333H444L466 312V307L390 218L374 214Q346 214 251 235T134 257Q123 257 108 244T82 216L71 202Z" />
<glyph unicode="&#xa0;" glyph-name="nbspace" horiz-adv-x="202" />
<glyph unicode="&#xa1;" glyph-name="exclamdown" horiz-adv-x="285" d="M168 464Q195 464 209 448T224 407Q224 381 207 363T162 345Q135 345 120 361T105 402Q105 428 122 446T168 464ZM179 242L187 -214L180 -224L97 -242L88 -231L140 243L168 250L179 242Z" />
<glyph unicode="&#xa2;" glyph-name="cent" horiz-adv-x="424" d="M365 88L371 86L382 55Q294 -12 245 -12Q234 -12 229 -11L216 -151L190 -154L185 -147L198 -7Q123 7 80 64T36 209Q36 309 94 380T242 462L260 654L286 658L292 649L274 464Q301 463 328 459T370
450L384 445L387 438Q369 378 366 300L325 297V328Q325 358 310 378T269 406L235 56Q241 55 252 55Q277 55 305 63T349 80L365 88ZM116 243Q116 174 139 128T204 64L237 410Q179 408 148 365T116 243Z" />
<glyph unicode="&#xa3;" glyph-name="sterling" horiz-adv-x="525" d="M440 142L458 140Q471 110 471 82Q471 42 449 15T395 -12Q360 -12 272 10T144 33Q100 33 60 3L53 7L38 41Q142 110 142 204V252Q141 275 129 283T79 293L75 299L82 333L142 344V361Q142 468
195 533T337 598Q407 598 440 583L445 572L422 509L403 506Q341 539 300 539Q213 539 209 415L206 337L367 340L370 337L360 284Q281 287 204 287L202 208Q197 127 138 78L193 89Q223 89 282 78T365 67Q433 67 440 142Z" />
<glyph unicode="&#xa4;" glyph-name="currency" horiz-adv-x="444" d="M73 359Q73 406 100 444L30 513L32 525L71 551Q103 517 138 482Q175 506 219 506T300 482L368 557L381 554L408 514L338 445Q366 408 366 359Q366 317 343 281L414 215L411 204L371 174L305
240Q267 213 219 213Q172 213 134 240L67 173L56 176L33 215Q65 245 98 277Q73 313 73 359ZM121 400T121 359T149 290T219 261T289 289T318 359T289 429T219 458T150 429Z" />
<glyph unicode="&#xa5;" glyph-name="yen" horiz-adv-x="549" d="M194 441Q194 430 206 405H205L285 248L378 407Q391 429 391 444T338 464Q338 465 338 467T337 471L342 508Q404 502 440 502L520 505L525 498L519 461Q492 457 476 448T452 428T422 384L380 316L495
318L501 309L498 279H357L322 222Q314 205 312 183L495 187L501 178L498 148H311Q311 138 311 119T310 90Q310 62 316 52T342 42Q345 42 351 42T361 43L388 44L390 36L381 -2Q309 0 271 0Q253 0 228 -2T187 -8L171 -10L176 33Q223 41 232 58T242 135Q242 143 242
148Q212 148 152 148T62 147L57 154L62 183H239Q230 215 218 236L194 279Q172 279 128 279T62 278L57 285L62 314H174Q165 331 149 363T126 405T105 432T75 453T33 460L31 469L38 505Q96 502 135 502Q156 502 186 504T236 508L255 509L260 499L257 465Q217 461
206 456T194 441Z" />
<glyph unicode="&#xa6;" glyph-name="brokenbar" horiz-adv-x="372" d="M152 166L216 178L219 175L220 -258L161 -269L152 -263V166ZM219 376L157 367L153 370Q153 441 153 583T154 796L214 807L225 801Q220 552 219 376Z" />
<glyph unicode="&#xa7;" glyph-name="section" horiz-adv-x="512" d="M35 350Q35 394 66 437T151 513Q155 569 197 609T298 649Q337 649 367 634T397 600Q397 582 391 556T378 522H364Q350 556 321 578T262 600Q238 600 222 583T206 538Q206 504 234 472T302 413T381
357T449 290T477 208Q477 158 444 110T360 35Q358 -14 309 -59T194 -105Q144 -105 111 -82T77 -25Q77 -3 82 24T92 60H107Q117 7 149 -25T225 -58Q257 -58 279 -37T302 14Q302 48 275 79T208 138T129 195T63 264T35 350ZM91 383Q91 345 128 305T211 234T301 159T356
72Q419 112 419 173Q419 202 395 232T334 290T261 346T193 409T154 478Q91 440 91 383Z" />
<glyph unicode="&#xa8;" glyph-name="dieresis" horiz-adv-x="398" d="M277 566Q258 566 247 579T236 609Q236 630 250 644T286 659Q305 659 316 647T327 616Q327 595 313 581T277 566ZM111 566Q92 566 81 579T70 609Q70 630 84 644T120 659Q139 659 150 647T161
616Q161 595 147 581T111 566Z" />
<glyph unicode="&#xa9;" glyph-name="copyright" horiz-adv-x="693" d="M339 131Q266 131 228 175T189 287Q189 363 236 413T362 463Q382 463 406 460T444 454L458 451L460 447Q450 408 447 357L414 355Q415 368 415 379Q415 423 351 423Q306 423 281 393T255
304Q255 240 279 204T353 167Q387 167 405 185T432 242L464 244Q453 195 451 157L447 150Q402 131 339 131ZM42 167T42 293T131 508T346 598Q473 598 562 509T651 293T562 78T346 -12Q220 -12 131 77ZM84 403T84 293T160 106T346 28T532 105T609 293T532 480T346
558T161 481Z" />
<glyph unicode="&#xaa;" glyph-name="ordfeminine" horiz-adv-x="321" d="M188 514L189 534Q189 563 175 579T134 595Q116 595 97 588T68 572L58 565L53 567L44 600Q126 647 155 647Q204 647 229 624T254 563Q254 553 248 499T242 427Q242 400 266 400Q274 400
283 403T296 410L301 413L310 401Q282 353 251 343Q195 343 190 393L186 394Q136 346 115 346Q79 346 55 370T30 432Q30 474 66 484L188 514ZM185 422L187 484L111 462Q94 457 94 439Q94 422 105 411T134 399Q157 399 185 422Z" />
<glyph unicode="&#xab;" glyph-name="guillemotleft" horiz-adv-x="427" d="M358 400L380 385L381 375L274 226L381 71L380 61L358 46Q324 81 281 122T212 188L186 212V227Q282 318 358 400ZM192 400L214 385L215 375L108 226L215 71L214 61L192 46Q158 81 115
122T46 188L20 212V227Q116 318 192 400Z" />
<glyph unicode="&#xac;" glyph-name="logicalnot" horiz-adv-x="506" d="M452 297L458 287Q451 224 450 177L451 41L402 30L393 36Q394 148 394 236L253 235L24 234L18 243L29 292Q179 291 268 291L452 297Z" />
<glyph unicode="&#xae;" glyph-name="registered" d="M30 422T30 507T89 651T234 711T378 652T438 507T379 363T234 303T90 362ZM65 577T65 507T114 388T234 338T353 387T403 507T354 626T234 676T115 627ZM140 411L142 432Q159 433 163 440T167 470V581Q167 599
155 599H144L142 603L145 620Q175 619 188 619H199L230 621Q268 621 289 607T311 566Q311 525 263 503L292 460Q313 428 333 428L336 424Q336 412 328 410T297 407Q277 407 260 439L231 494H206Q205 480 205 461T208 438T229 433L231 429L229 412Q211 413 197 413H185L140
411ZM209 589Q207 543 207 520Q210 520 215 520T226 518T236 517Q267 529 267 559Q267 597 215 597Q209 597 209 589Z" />
<glyph unicode="&#xaf;" glyph-name="overscore" horiz-adv-x="398" d="M343 653L349 643L342 596L200 595L56 594L50 603L60 648Q155 647 214 647L343 653Z" />
<glyph unicode="0;" glyph-name="degree" horiz-adv-x="302" d="M25 470T25 523T61 612T151 649T240 613T277 523T241 434T151 397T62 433ZM67 558T67 523T91 464T151 439T210 463T235 523T211 582T151 607T92 583Z" />
<glyph unicode="1;" glyph-name="plusminus" horiz-adv-x="506" d="M274 503L284 497Q278 384 278 304L482 310L488 300L480 249Q446 249 379 249T278 248L279 64L230 53L221 59Q222 162 222 248L24 247L18 256L29 305Q135 304 222 304Q222 336 222 399T223
495L274 503ZM482 -12L488 -22L480 -73Q385 -73 207 -74T24 -75L18 -66L29 -17Q179 -18 268 -18Q339 -18 405 -15Q482 -13 482 -12Z" />
<glyph unicode="2;" glyph-name="two.sups" horiz-adv-x="329" d="M30 344L24 369L93 446Q189 564 188 624Q188 669 137 669Q82 669 45 607H38L28 648Q48 682 84 705T155 728Q204 728 233 705T263 643T231 553T119 407L122 402H204Q236 402 249 413T270 459L308
463Q294 401 289 352L280 346Q130 351 72 351L30 344Z" />
<glyph unicode="3;" glyph-name="three.sups" horiz-adv-x="293" d="M31 400L37 407Q64 399 90 399Q131 399 158 417T186 463Q186 494 161 508T82 523L77 528L73 560L115 569Q168 595 168 635Q168 654 156 665T124 676Q87 676 52 648H45L35 685Q49 696 83
712T148 728Q187 728 212 707T237 653Q237 627 218 604T167 565V560Q254 536 254 472Q254 426 198 385T78 343Q53 343 43 356T31 400Z" />
<glyph unicode="4;" glyph-name="acute" horiz-adv-x="398" d="M327 672L326 661Q242 597 158 521L149 523L129 542Q161 577 198 620T258 689L279 715L289 713L327 672Z" />
<glyph unicode="5;" glyph-name="mu" horiz-adv-x="520" d="M72 445L159 464L165 452Q156 427 148 338T139 155Q139 57 223 57Q247 57 275 71T319 99L335 113V346L328 439L333 446L419 464L425 452Q416 429 410 328T403 105Q403 59 444 59Q458 59 473 65T496
78L504 84L518 68Q512 59 503 46T470 10T431 -12Q347 -12 342 65L336 67Q254 -2 207 -12Q165 -12 132 14L127 11L124 -48Q124 -53 124 -63T123 -78Q122 -101 124 -136T128 -196L131 -220L126 -227L60 -242L53 -230Q64 -88 68 73L74 328Q74 351 73 378T69 422L67
438L72 445Z" />
<glyph unicode="6;" glyph-name="paragraph" horiz-adv-x="561" d="M341 134V578Q340 588 337 590T314 592Q265 592 241 552T216 445Q216 374 232 326T285 227V212Q180 221 111 279T42 445Q42 528 100 584T253 641Q281 641 326 639T382 637L507 640L501 598L499
594Q454 596 438 587T419 549Q408 477 408 154Q408 101 404 64T389 -7T357 -61T304 -93T225 -105Q169 -105 130 -81T91 -11Q91 34 129 78H144Q144 12 170 -23T240 -58Q301 -58 321 -17T341 134Z" />
<glyph unicode="7;" glyph-name="middot" horiz-adv-x="238" d="M116 168Q89 168 75 184T60 225Q60 251 77 269T122 287Q149 287 164 271T179 230Q179 204 162 186T116 168Z" />
<glyph unicode="8;" glyph-name="cedilla" horiz-adv-x="398" d="M151 -85L184 23H227L202 -50Q206 -53 219 -62T239 -75T256 -89T272 -105T282 -121T287 -139Q287 -177 249 -205T167 -233Q142 -233 121 -223T99 -197T124 -141H133Q134 -168 149 -183T188
-198Q208 -198 222 -188T236 -160Q236 -134 151 -85Z" />
<glyph unicode="9;" glyph-name="one.sups" horiz-adv-x="249" d="M163 662Q157 550 157 429Q157 405 163 396T187 386L219 388L221 385L214 349Q158 351 126 351L35 344L39 379Q70 381 83 392T96 430V639Q96 661 89 667T63 674L30 671L27 674L30 706Q83 713
104 716Q114 717 123 718T139 721T152 723T162 724T169 726T175 727T178 727T181 728H182L187 713Q167 695 163 662Z" />
<glyph unicode="a;" glyph-name="ordmasculine" horiz-adv-x="338" d="M159 343Q100 343 64 382T28 486Q28 556 71 601T180 647Q239 647 274 608T310 504Q310 434 268 389T159 343ZM174 384Q205 384 222 408T239 478Q239 536 219 568T163 601Q132 601 115
577T98 507Q98 449 118 417T174 384Z" />
<glyph unicode="b;" glyph-name="guillemotright" horiz-adv-x="427" d="M235 46L213 61L212 71L319 220L212 375L213 385L235 400Q269 365 312 324T381 258L407 234V219Q311 128 235 46ZM69 46L47 61L46 71L153 220L46 375L47 385L69 400Q103 365 146 324T215
258L241 234V219Q145 128 69 46Z" />
<glyph unicode="c;" glyph-name="onequarter" horiz-adv-x="685" d="M163 578Q157 466 157 345Q157 321 163 312T187 302L219 304L221 301L214 265Q158 267 126 267L35 260L39 295Q70 297 83 308T96 346V555Q96 577 89 583T63 590L30 587L27 590L30 622Q83
629 104 632Q114 633 123 634T139 637T152 639T162 640T169 642T175 643T178 643T181 644H182L187 629Q167 611 163 578ZM583 659L588 645Q414 386 326 245L111 -95L73 -76L68 -64Q199 135 288 275L544 678L583 659ZM384 107L386 141L558 376L561 377L600 371V152H655L660
145L654 101L600 103L604 6L600 0L539 -7L534 -1Q538 57 538 104L384 107ZM532 277L442 152H538V277H532Z" />
<glyph unicode="d;" glyph-name="onehalf" horiz-adv-x="713" d="M163 578Q157 466 157 345Q157 321 163 312T187 302L219 304L221 301L214 265Q158 267 126 267L35 260L39 295Q70 297 83 308T96 346V555Q96 577 89 583T63 590L30 587L27 590L30 622Q83 629
104 632Q114 633 123 634T139 637T152 639T162 640T169 642T175 643T178 643T181 644H182L187 629Q167 611 163 578ZM583 659L588 645Q414 386 326 245L111 -95L73 -76L68 -64Q199 135 288 275L544 678L583 659ZM414 -7L408 18L477 95Q573 213 572 273Q572 318
521 318Q466 318 429 256H422L412 297Q432 331 468 354T539 377Q588 377 617 354T647 292T615 202T503 56L506 51H588Q620 51 633 62T654 108L692 112Q678 50 673 1L664 -5Q514 0 456 0L414 -7Z" />
<glyph unicode="e;" glyph-name="threequarters" horiz-adv-x="689" d="M31 316L37 323Q64 315 90 315Q131 315 158 333T186 379Q186 410 161 424T82 439L77 444L73 476L115 485Q168 511 168 551Q168 570 156 581T124 592Q87 592 52 564H45L35 601Q49 612
83 628T148 644Q187 644 212 623T237 569Q237 543 218 520T167 481V476Q254 452 254 388Q254 342 198 301T78 259Q53 259 43 272T31 316ZM587 659L592 645Q418 386 330 245L115 -95L77 -76L72 -64Q203 135 292 275L548 678L587 659ZM388 107L390 141L562 376L565
377L604 371V152H659L664 145L658 101L604 103L608 6L604 0L543 -7L538 -1Q542 57 542 104L388 107ZM536 277L446 152H542V277H536Z" />
<glyph unicode="f;" glyph-name="questiondown" horiz-adv-x="360" d="M252 249L276 129L273 115L154 39Q97 0 97 -47Q97 -162 300 -174L302 -185L269 -238L255 -242Q162 -239 97 -192T31 -77Q31 -45 40 -20T69 27T105 61T152 94T197 124L200 133L179 228L182
236L243 253L252 249ZM217 464Q244 464 258 448T273 407Q273 381 256 363T211 345Q184 345 169 361T154 402Q154 428 171 446T217 464Z" />
<glyph unicode="0;" glyph-name="Agrave" horiz-adv-x="578" d="M493 113Q505 76 525 61T589 42L591 38L584 -3Q512 0 478 0T407 -2T349 -8L329 -10L326 -3L330 36Q381 40 400 48T419 74Q419 94 410 122L377 231Q353 232 273 232Q225 232 164 224L127 120Q118
93 118 81Q118 40 178 40H235L237 36L231 -7Q158 0 92 0L-18 -3L-10 44Q18 47 35 63T68 121L263 632L326 649H334Q418 338 493 113ZM277 540L182 273H270Q306 273 363 278L284 540H277ZM146 777L142 787L158 835L167 841Q272 781 366 732L360 708L352 703L146 777Z"
/>
<glyph unicode="1;" glyph-name="Aacute" horiz-adv-x="578" d="M493 113Q505 76 525 61T589 42L591 38L584 -3Q512 0 478 0T407 -2T349 -8L329 -10L326 -3L330 36Q381 40 400 48T419 74Q419 94 410 122L377 231Q353 232 273 232Q225 232 164 224L127 120Q118
93 118 81Q118 40 178 40H235L237 36L231 -7Q158 0 92 0L-18 -3L-10 44Q18 47 35 63T68 121L263 632L326 649H334Q418 338 493 113ZM277 540L182 273H270Q306 273 363 278L284 540H277ZM455 787L451 777Q350 743 245 703L237 708L231 732L430 841L439 835L455 787Z"
/>
<glyph unicode="2;" glyph-name="Acircumflex" horiz-adv-x="578" d="M493 113Q505 76 525 61T589 42L591 38L584 -3Q512 0 478 0T407 -2T349 -8L329 -10L326 -3L330 36Q381 40 400 48T419 74Q419 94 410 122L377 231Q353 232 273 232Q225 232 164 224L127
120Q118 93 118 81Q118 40 178 40H235L237 36L231 -7Q158 0 92 0L-18 -3L-10 44Q18 47 35 63T68 121L263 632L326 649H334Q418 338 493 113ZM277 540L182 273H270Q306 273 363 278L284 540H277ZM164 713L150 735L288 846H302Q375 784 440 735L426 713L417 712Q350
751 295 777Q243 753 173 712L164 713Z" />
<glyph unicode="3;" glyph-name="Atilde" horiz-adv-x="578" d="M493 113Q505 76 525 61T589 42L591 38L584 -3Q512 0 478 0T407 -2T349 -8L329 -10L326 -3L330 36Q381 40 400 48T419 74Q419 94 410 122L377 231Q353 232 273 232Q225 232 164 224L127 120Q118
93 118 81Q118 40 178 40H235L237 36L231 -7Q158 0 92 0L-18 -3L-10 44Q18 47 35 63T68 121L263 632L326 649H334Q418 338 493 113ZM277 540L182 273H270Q306 273 363 278L284 540H277ZM160 699H154L132 720V725L208 804L224 808Q241 808 299 792T370 775Q380 775
396 786T422 809L433 820H439L461 799V794L385 715L369 711Q352 711 294 727T223 744Q212 744 197 733T170 710L160 699Z" />
<glyph unicode="4;" glyph-name="Adieresis" horiz-adv-x="578" d="M493 113Q505 76 525 61T589 42L591 38L584 -3Q512 0 478 0T407 -2T349 -8L329 -10L326 -3L330 36Q381 40 400 48T419 74Q419 94 410 122L377 231Q353 232 273 232Q225 232 164 224L127 120Q118
93 118 81Q118 40 178 40H235L237 36L231 -7Q158 0 92 0L-18 -3L-10 44Q18 47 35 63T68 121L263 632L326 649H334Q418 338 493 113ZM277 540L182 273H270Q306 273 363 278L284 540H277ZM373 725Q354 725 343 738T332 768Q332 789 346 803T382 818Q401 818 412 806T423
775Q423 754 409 740T373 725ZM207 725Q188 725 177 738T166 768Q166 789 180 803T216 818Q235 818 246 806T257 775Q257 754 243 740T207 725Z" />
<glyph unicode="5;" glyph-name="Aring" horiz-adv-x="578" d="M493 113Q505 76 525 61T589 42L591 38L584 -3Q512 0 478 0T407 -2T349 -8L329 -10L326 -3L330 36Q381 40 400 48T419 74Q419 94 410 122L377 231Q353 232 273 232Q225 232 164 224L127 120Q118
93 118 81Q118 40 178 40H235L237 36L231 -7Q158 0 92 0L-18 -3L-10 44Q18 47 35 63T68 121L263 632L326 649H334Q418 338 493 113ZM277 540L182 273H270Q306 273 363 278L284 540H277ZM297 712Q341 712 341 751Q341 773 328 786T290 799Q246 799 246 760Q246 736
262 724T297 712ZM290 674Q254 674 234 696T214 754Q214 791 237 814T298 838T355 816T375 762Q375 726 352 700T290 674Z" />
<glyph unicode="6;" glyph-name="AE" horiz-adv-x="810" d="M301 36Q360 41 379 50T398 87Q398 102 391 153L373 276L274 268L183 258L112 120Q96 89 96 74Q96 40 151 40H208L203 -7Q129 0 65 0L-3 -4L-10 31Q23 66 53 121L300 578Q296 594 275 594L241 592L239
596L246 640H264Q283 639 323 638T405 637Q623 637 703 649L706 643Q689 569 683 477L635 473Q637 502 637 516Q637 565 612 576T480 587Q433 587 422 582T410 556L441 328L559 339L651 352L655 347L642 294L556 291L447 282L475 113Q481 75 499 60T559 45Q668
45 697 65T737 167L781 172L784 167Q766 84 757 -1L752 -7L708 -6Q663 -4 595 -2T483 0H449Q415 0 378 -2T321 -8L301 -10L299 -3L301 36ZM210 310L294 315L367 321L337 539H328L210 310Z" />
<glyph unicode="7;" glyph-name="Ccedilla" horiz-adv-x="629" d="M298 -85L320 -11Q191 -5 116 77T40 297Q40 449 139 549T389 649Q426 649 469 643T538 631L563 625L567 619Q548 544 542 452L494 448Q497 475 497 497Q497 590 350 590Q249 590 190 520T130
330Q130 198 192 118T359 38Q427 38 468 76T529 196L577 200Q557 109 550 37L544 28Q468 -7 362 -11L349 -50Q353 -53 366 -62T386 -75T403 -89T419 -105T429 -121T434 -139Q434 -177 396 -205T314 -233Q289 -233 268 -223T246 -197T271 -141H280Q281 -168 295
-183T335 -198Q355 -198 369 -188T383 -160Q383 -134 298 -85Z" />
<glyph unicode="8;" glyph-name="Egrave" horiz-adv-x="591" d="M213 105Q213 64 225 55T292 45Q376 45 411 53T461 85T485 167L529 172L532 167Q514 84 505 -1L500 -7Q292 0 197 0Q163 0 129 -2T76 -8L58 -10L64 36Q109 42 125 59T142 120L143 540Q143 572
136 583T106 594L72 592L70 596L77 640Q156 637 216 637Q428 637 516 649L519 643Q502 569 496 477L448 473Q450 502 450 516Q450 565 427 576T297 587Q248 587 238 582T227 548L219 354Q229 354 267 354T322 353L444 364L448 359L434 300Q348 303 294 303Q257
303 217 296Q213 152 213 105ZM161 777L157 787L173 835L182 841Q287 781 381 732L375 708L367 703L161 777Z" />
<glyph unicode="9;" glyph-name="Eacute" horiz-adv-x="591" d="M213 105Q213 64 225 55T292 45Q376 45 411 53T461 85T485 167L529 172L532 167Q514 84 505 -1L500 -7Q292 0 197 0Q163 0 129 -2T76 -8L58 -10L64 36Q109 42 125 59T142 120L143 540Q143 572
136 583T106 594L72 592L70 596L77 640Q156 637 216 637Q428 637 516 649L519 643Q502 569 496 477L448 473Q450 502 450 516Q450 565 427 576T297 587Q248 587 238 582T227 548L219 354Q229 354 267 354T322 353L444 364L448 359L434 300Q348 303 294 303Q257
303 217 296Q213 152 213 105ZM470 787L466 777Q365 743 260 703L252 708L246 732L445 841L454 835L470 787Z" />
<glyph unicode="a;" glyph-name="Ecircumflex" horiz-adv-x="591" d="M213 105Q213 64 225 55T292 45Q376 45 411 53T461 85T485 167L529 172L532 167Q514 84 505 -1L500 -7Q292 0 197 0Q163 0 129 -2T76 -8L58 -10L64 36Q109 42 125 59T142 120L143 540Q143
572 136 583T106 594L72 592L70 596L77 640Q156 637 216 637Q428 637 516 649L519 643Q502 569 496 477L448 473Q450 502 450 516Q450 565 427 576T297 587Q248 587 238 582T227 548L219 354Q229 354 267 354T322 353L444 364L448 359L434 300Q348 303 294 303Q257
303 217 296Q213 152 213 105ZM179 713L165 735L303 846H317Q390 784 455 735L441 713L432 712Q365 751 310 777Q258 753 188 712L179 713Z" />
<glyph unicode="b;" glyph-name="Edieresis" horiz-adv-x="591" d="M213 105Q213 64 225 55T292 45Q376 45 411 53T461 85T485 167L529 172L532 167Q514 84 505 -1L500 -7Q292 0 197 0Q163 0 129 -2T76 -8L58 -10L64 36Q109 42 125 59T142 120L143 540Q143
572 136 583T106 594L72 592L70 596L77 640Q156 637 216 637Q428 637 516 649L519 643Q502 569 496 477L448 473Q450 502 450 516Q450 565 427 576T297 587Q248 587 238 582T227 548L219 354Q229 354 267 354T322 353L444 364L448 359L434 300Q348 303 294 303Q257
303 217 296Q213 152 213 105ZM388 725Q369 725 358 738T347 768Q347 789 361 803T397 818Q416 818 427 806T438 775Q438 754 424 740T388 725ZM222 725Q203 725 192 738T181 768Q181 789 195 803T231 818Q250 818 261 806T272 775Q272 754 258 740T222 725Z" />
<glyph unicode="c;" glyph-name="Igrave" horiz-adv-x="361" d="M227 544Q213 254 213 112Q213 71 222 58T257 44L310 47L312 43L303 -3Q219 0 172 0Q149 0 120 -3T74 -9L56 -12L62 34Q109 43 125 60T142 120L143 540Q143 572 136 583T106 594L64 592L62 596L69
640Q147 637 188 637Q208 637 237 639T284 644L303 646L299 601Q257 596 243 585T227 544ZM35 777L31 787L47 835L56 841Q161 781 255 732L249 708L241 703L35 777Z" />
<glyph unicode="d;" glyph-name="Iacute" horiz-adv-x="361" d="M227 544Q213 254 213 112Q213 71 222 58T257 44L310 47L312 43L303 -3Q219 0 172 0Q149 0 120 -3T74 -9L56 -12L62 34Q109 43 125 60T142 120L143 540Q143 572 136 583T106 594L64 592L62 596L69
640Q147 637 188 637Q208 637 237 639T284 644L303 646L299 601Q257 596 243 585T227 544ZM344 787L340 777Q239 743 134 703L126 708L120 732L319 841L328 835L344 787Z" />
<glyph unicode="e;" glyph-name="Icircumflex" horiz-adv-x="361" d="M227 544Q213 254 213 112Q213 71 222 58T257 44L310 47L312 43L303 -3Q219 0 172 0Q149 0 120 -3T74 -9L56 -12L62 34Q109 43 125 60T142 120L143 540Q143 572 136 583T106 594L64 592L62
596L69 640Q147 637 188 637Q208 637 237 639T284 644L303 646L299 601Q257 596 243 585T227 544ZM53 713L39 735L177 846H191Q264 784 329 735L315 713L306 712Q239 751 184 777Q132 753 62 712L53 713Z" />
<glyph unicode="f;" glyph-name="Idieresis" horiz-adv-x="361" d="M227 544Q213 254 213 112Q213 71 222 58T257 44L310 47L312 43L303 -3Q219 0 172 0Q149 0 120 -3T74 -9L56 -12L62 34Q109 43 125 60T142 120L143 540Q143 572 136 583T106 594L64 592L62
596L69 640Q147 637 188 637Q208 637 237 639T284 644L303 646L299 601Q257 596 243 585T227 544ZM262 725Q243 725 232 738T221 768Q221 789 235 803T271 818Q290 818 301 806T312 775Q312 754 298 740T262 725ZM96 725Q77 725 66 738T55 768Q55 789 69 803T105
818Q124 818 135 806T146 775Q146 754 132 740T96 725Z" />
<glyph unicode="&#xd0;" glyph-name="Eth" horiz-adv-x="713" d="M324 -12Q231 0 180 0Q158 0 129 -3T82 -9L65 -12L71 34Q123 44 136 64T149 157V304H16L9 311L16 343H149L150 540Q150 572 143 583T113 594L79 592L77 596L84 640Q151 637 189 637L341 641Q485
641 577 557T670 342Q670 193 570 91T324 -12ZM236 570L227 343H397L402 336L396 304H226L221 131Q221 76 246 58T347 39Q455 39 517 113T579 318Q579 450 500 521T272 592Q251 592 244 588T236 570Z" />
<glyph unicode="&#xd1;" glyph-name="Ntilde" horiz-adv-x="719" d="M551 145H556V550Q556 593 523 593L485 592L483 596L492 641Q553 637 587 637Q606 637 630 639T670 643L686 645L681 599Q646 594 630 580T613 536L599 -26L570 -40Q483 95 390 233T248 441L198
511H193L188 84Q188 62 195 53T219 44L270 45L272 41L263 -4Q200 0 157 0Q139 0 116 -2T78 -6L64 -8L69 38Q130 45 131 101L144 538Q144 569 126 582T57 600L54 605L62 642Q120 637 148 637L215 641Q289 526 373 402T504 212L551 145ZM236 699H230L208 720V725L284
804L300 808Q317 808 375 792T446 775Q456 775 472 786T498 809L509 820H515L537 799V794L461 715L445 711Q428 711 370 727T299 744Q288 744 273 733T246 710L236 699Z" />
<glyph unicode="&#xd2;" glyph-name="Ograve" horiz-adv-x="692" d="M348 39Q443 39 503 111T563 299Q563 427 500 508T335 589Q242 589 184 517T126 329Q126 201 188 120T348 39ZM317 -12Q194 -12 117 74T40 297Q40 445 135 547T369 649Q494 649 573 563T652
341Q652 192 556 90T317 -12ZM193 777L189 787L205 835L214 841Q319 781 413 732L407 708L399 703L193 777Z" />
<glyph unicode="&#xd3;" glyph-name="Oacute" horiz-adv-x="692" d="M348 39Q443 39 503 111T563 299Q563 427 500 508T335 589Q242 589 184 517T126 329Q126 201 188 120T348 39ZM317 -12Q194 -12 117 74T40 297Q40 445 135 547T369 649Q494 649 573 563T652
341Q652 192 556 90T317 -12ZM502 787L498 777Q397 743 292 703L284 708L278 732L477 841L486 835L502 787Z" />
<glyph unicode="&#xd4;" glyph-name="Ocircumflex" horiz-adv-x="692" d="M348 39Q443 39 503 111T563 299Q563 427 500 508T335 589Q242 589 184 517T126 329Q126 201 188 120T348 39ZM317 -12Q194 -12 117 74T40 297Q40 445 135 547T369 649Q494 649 573 563T652
341Q652 192 556 90T317 -12ZM211 713L197 735L335 846H349Q422 784 487 735L473 713L464 712Q397 751 342 777Q290 753 220 712L211 713Z" />
<glyph unicode="&#xd5;" glyph-name="Otilde" horiz-adv-x="692" d="M348 39Q443 39 503 111T563 299Q563 427 500 508T335 589Q242 589 184 517T126 329Q126 201 188 120T348 39ZM317 -12Q194 -12 117 74T40 297Q40 445 135 547T369 649Q494 649 573 563T652
341Q652 192 556 90T317 -12ZM207 699H201L179 720V725L255 804L271 808Q288 808 346 792T417 775Q427 775 443 786T470 809L480 820H486L508 799V794L432 715L416 711Q399 711 341 727T270 744Q259 744 244 733T218 710L207 699Z" />
<glyph unicode="&#xd6;" glyph-name="Odieresis" horiz-adv-x="692" d="M348 39Q443 39 503 111T563 299Q563 427 500 508T335 589Q242 589 184 517T126 329Q126 201 188 120T348 39ZM317 -12Q194 -12 117 74T40 297Q40 445 135 547T369 649Q494 649 573 563T652
341Q652 192 556 90T317 -12ZM420 725Q401 725 390 738T379 768Q379 789 393 803T429 818Q448 818 459 806T470 775Q470 754 456 740T420 725ZM254 725Q235 725 224 738T213 768Q213 789 227 803T263 818Q282 818 293 806T304 775Q304 754 290 740T254 725Z" />
<glyph unicode="&#xd7;" glyph-name="multiply" horiz-adv-x="506" d="M392 449L403 446L434 404L292 261L437 126L434 114L392 84L253 222L113 80L102 83L75 125Q151 199 213 261L68 405L70 416L113 442Q191 363 253 301L392 449Z" />
<glyph unicode="&#xd8;" glyph-name="Oslash" horiz-adv-x="692" d="M107 -82L166 31Q106 70 73 139T40 297Q40 445 135 547T369 649Q428 649 478 628L520 708L549 701L552 689L511 613Q577 575 614 504T652 341Q652 192 556 90T317 -12Q254 -12 196 14L136 -98L109
-92L107 -82ZM348 39Q443 39 503 111T563 299Q563 456 471 538L229 78Q282 39 348 39ZM126 329Q126 182 203 102L442 559Q393 589 335 589Q242 589 184 517T126 329Z" />
<glyph unicode="&#xd9;" glyph-name="Ugrave" horiz-adv-x="681" d="M184 250Q184 151 227 98T351 45Q433 45 476 88T519 214L513 540Q511 575 505 584T476 594L433 592L431 596L438 640Q513 637 551 637Q570 637 594 639T634 644L648 646L644 601Q600 595 588
585T575 544V208Q575 103 510 46T327 -12Q222 -12 165 45T108 209V540Q108 572 101 583T71 594L37 592L35 596L42 640Q117 637 155 637Q174 637 200 639T244 644L260 646L256 601Q219 596 207 585T192 544L184 250ZM198 777L194 787L210 835L219 841Q324 781 418
732L412 708L404 703L198 777Z" />
<glyph unicode="&#xda;" glyph-name="Uacute" horiz-adv-x="681" d="M184 250Q184 151 227 98T351 45Q433 45 476 88T519 214L513 540Q511 575 505 584T476 594L433 592L431 596L438 640Q513 637 551 637Q570 637 594 639T634 644L648 646L644 601Q600 595 588
585T575 544V208Q575 103 510 46T327 -12Q222 -12 165 45T108 209V540Q108 572 101 583T71 594L37 592L35 596L42 640Q117 637 155 637Q174 637 200 639T244 644L260 646L256 601Q219 596 207 585T192 544L184 250ZM507 787L503 777Q402 743 297 703L289 708L283
732L482 841L491 835L507 787Z" />
<glyph unicode="&#xdb;" glyph-name="Ucircumflex" horiz-adv-x="681" d="M184 250Q184 151 227 98T351 45Q433 45 476 88T519 214L513 540Q511 575 505 584T476 594L433 592L431 596L438 640Q513 637 551 637Q570 637 594 639T634 644L648 646L644 601Q600 595
588 585T575 544V208Q575 103 510 46T327 -12Q222 -12 165 45T108 209V540Q108 572 101 583T71 594L37 592L35 596L42 640Q117 637 155 637Q174 637 200 639T244 644L260 646L256 601Q219 596 207 585T192 544L184 250ZM216 713L202 735L340 846H354Q427 784 492
735L478 713L469 712Q402 751 347 777Q295 753 225 712L216 713Z" />
<glyph unicode="&#xdc;" glyph-name="Udieresis" horiz-adv-x="681" d="M184 250Q184 151 227 98T351 45Q433 45 476 88T519 214L513 540Q511 575 505 584T476 594L433 592L431 596L438 640Q513 637 551 637Q570 637 594 639T634 644L648 646L644 601Q600 595
588 585T575 544V208Q575 103 510 46T327 -12Q222 -12 165 45T108 209V540Q108 572 101 583T71 594L37 592L35 596L42 640Q117 637 155 637Q174 637 200 639T244 644L260 646L256 601Q219 596 207 585T192 544L184 250ZM425 725Q406 725 395 738T384 768Q384 789
398 803T434 818Q453 818 464 806T475 775Q475 754 461 740T425 725ZM259 725Q240 725 229 738T218 768Q218 789 232 803T268 818Q287 818 298 806T309 775Q309 754 295 740T259 725Z" />
<glyph unicode="&#xdd;" glyph-name="Yacute" horiz-adv-x="538" d="M163 567Q163 554 191 490T246 367T275 309H280L394 521Q410 550 410 571Q410 597 347 601L345 605L351 644Q425 637 462 637L554 641L558 634L552 597Q506 588 487 569T431 485Q425 473 421
467L321 291Q311 273 307 248T301 204T299 112Q298 73 307 59T343 44L392 47L394 43L385 -3Q302 0 258 0Q236 0 208 -3T162 -9L144 -12L150 34Q202 44 215 64T228 142V186Q228 241 199 299L109 482Q75 552 61 567Q38 592 -17 597L-19 601L-13 640Q51 637 97 637L239
645L242 638L239 603Q194 599 179 592T163 567ZM445 787L441 777Q340 743 235 703L227 708L221 732L420 841L429 835L445 787Z" />
<glyph unicode="&#xde;" glyph-name="Thorn" horiz-adv-x="543" d="M227 544Q227 536 226 526T225 513T225 503H307Q410 503 465 461T521 340Q521 263 450 206T284 148H213V112Q213 71 222 58T257 44L310 47L312 43L303 -3Q219 0 172 0Q149 0 120 -3T74 -9L56
-12L62 34Q109 43 125 60T142 120L143 540Q143 572 136 583T106 594L64 592L62 596L69 640Q147 637 188 637Q208 637 237 639T284 644L303 646L299 601Q257 596 243 585T227 544ZM222 446Q216 306 214 209Q259 194 316 192Q437 207 437 321Q437 390 392 422T249
454Q224 454 222 446Z" />
<glyph unicode="&#xdf;" glyph-name="germandbls" horiz-adv-x="918" d="M191 -9Q156 -9 123 -3T74 11L58 18L53 27Q64 90 64 162L109 166Q109 88 129 64T211 39Q259 39 288 60T318 116Q318 132 311 145T282 173T250 193T207 215Q199 219 195 221Q164 236 145
247T105 275T73 313T62 359Q62 423 118 465T258 507Q291 507 323 503T372 493L387 488L391 481Q377 420 372 349L333 345L327 349Q329 364 329 385Q329 424 309 439T236 455Q194 455 167 436T139 386T166 335T250 287Q280 273 293 267T332 245T368 217T390 185T400
144Q400 76 342 34T191 -9ZM650 -9Q615 -9 582 -3T532 11L517 18L512 27Q523 90 523 162L568 166Q568 88 588 64T670 39Q718 39 747 60T777 116Q777 132 770 145T741 173T709 193T666 215Q658 219 654 221Q623 236 604 247T564 275T532 313T521 359Q521 423 577
465T717 507Q750 507 782 503T830 493L846 488L850 481Q836 420 831 349L792 345L786 349Q788 364 788 385Q788 424 768 439T695 455Q653 455 626 436T598 386T625 335T709 287Q739 273 752 267T791 245T827 217T849 185T859 144Q859 76 801 34T650 -9Z" />
<glyph unicode="&#xe0;" glyph-name="agrave" horiz-adv-x="506" d="M427 93Q437 64 452 53T502 38L504 34L499 -2Q438 0 408 0Q379 0 348 -1T299 -5L282 -7L279 -2L282 34Q324 37 338 43T353 63Q353 79 346 97L322 174Q302 175 239 175Q210 175 153 169L125 95Q118
72 118 67Q118 37 165 37H208L211 33L205 -5Q144 0 90 0L-2 -2L4 39Q26 42 39 54T65 97L222 494L293 507L300 506Q370 254 427 93ZM242 414L169 216H237Q272 216 310 220L249 414H242ZM118 637L114 647L130 695L139 701Q244 641 338 592L332 568L324 563L118 637Z"
/>
<glyph unicode="&#xe1;" glyph-name="aacute" horiz-adv-x="506" d="M427 93Q437 64 452 53T502 38L504 34L499 -2Q438 0 408 0Q379 0 348 -1T299 -5L282 -7L279 -2L282 34Q324 37 338 43T353 63Q353 79 346 97L322 174Q302 175 239 175Q210 175 153 169L125 95Q118
72 118 67Q118 37 165 37H208L211 33L205 -5Q144 0 90 0L-2 -2L4 39Q26 42 39 54T65 97L222 494L293 507L300 506Q370 254 427 93ZM242 414L169 216H237Q272 216 310 220L249 414H242ZM405 647L401 637Q300 603 195 563L187 568L181 592L380 701L389 695L405 647Z"
/>
<glyph unicode="&#xe2;" glyph-name="acircumflex" horiz-adv-x="506" d="M427 93Q437 64 452 53T502 38L504 34L499 -2Q438 0 408 0Q379 0 348 -1T299 -5L282 -7L279 -2L282 34Q324 37 338 43T353 63Q353 79 346 97L322 174Q302 175 239 175Q210 175 153 169L125
95Q118 72 118 67Q118 37 165 37H208L211 33L205 -5Q144 0 90 0L-2 -2L4 39Q26 42 39 54T65 97L222 494L293 507L300 506Q370 254 427 93ZM242 414L169 216H237Q272 216 310 220L249 414H242ZM126 573L112 595L250 706H264Q337 644 402 595L388 573L379 572Q312
611 257 637Q205 613 135 572L126 573Z" />
<glyph unicode="&#xe3;" glyph-name="atilde" horiz-adv-x="506" d="M427 93Q437 64 452 53T502 38L504 34L499 -2Q438 0 408 0Q379 0 348 -1T299 -5L282 -7L279 -2L282 34Q324 37 338 43T353 63Q353 79 346 97L322 174Q302 175 239 175Q210 175 153 169L125 95Q118
72 118 67Q118 37 165 37H208L211 33L205 -5Q144 0 90 0L-2 -2L4 39Q26 42 39 54T65 97L222 494L293 507L300 506Q370 254 427 93ZM242 414L169 216H237Q272 216 310 220L249 414H242ZM122 559H116L94 580V585L170 664L186 668Q203 668 261 652T332 635Q342 635
358 646T384 669L395 680H401L423 659V654L347 575L331 571Q314 571 256 587T185 604Q174 604 159 593T132 570L122 559Z" />
<glyph unicode="&#xe4;" glyph-name="adieresis" horiz-adv-x="506" d="M427 93Q437 64 452 53T502 38L504 34L499 -2Q438 0 408 0Q379 0 348 -1T299 -5L282 -7L279 -2L282 34Q324 37 338 43T353 63Q353 79 346 97L322 174Q302 175 239 175Q210 175 153 169L125
95Q118 72 118 67Q118 37 165 37H208L211 33L205 -5Q144 0 90 0L-2 -2L4 39Q26 42 39 54T65 97L222 494L293 507L300 506Q370 254 427 93ZM242 414L169 216H237Q272 216 310 220L249 414H242ZM335 585Q316 585 305 598T294 628Q294 649 308 663T344 678Q363 678
374 666T385 635Q385 614 371 600T335 585ZM169 585Q150 585 139 598T128 628Q128 649 142 663T178 678Q197 678 208 666T219 635Q219 614 205 600T169 585Z" />
<glyph unicode="&#xe5;" glyph-name="aring" horiz-adv-x="506" d="M427 93Q437 64 452 53T502 38L504 34L499 -2Q438 0 408 0Q379 0 348 -1T299 -5L282 -7L279 -2L282 34Q324 37 338 43T353 63Q353 79 346 97L322 174Q302 175 239 175Q210 175 153 169L125 95Q118
72 118 67Q118 37 165 37H208L211 33L205 -5Q144 0 90 0L-2 -2L4 39Q26 42 39 54T65 97L222 494L293 507L300 506Q370 254 427 93ZM242 414L169 216H237Q272 216 310 220L249 414H242ZM259 572Q303 572 303 611Q303 633 290 646T252 659Q208 659 208 620Q208 596
224 584T259 572ZM252 534Q216 534 196 556T176 614Q176 651 199 674T260 698T317 676T337 622Q337 586 314 560T252 534Z" />
<glyph unicode="&#xe6;" glyph-name="ae" horiz-adv-x="699" d="M262 34Q309 38 323 45T338 73Q338 80 333 120L320 208L241 202L168 192L115 95Q103 72 103 61Q103 37 148 37L190 36L185 -5Q117 0 66 0L9 -3L4 31Q5 31 12 38T32 62T55 97L250 445Q246 459 229
459L202 458L199 462L205 500H222Q240 499 278 499T353 498Q532 498 602 507L605 502Q591 440 586 368L538 364Q540 386 540 397Q540 434 520 442T417 451Q381 451 373 447T363 427L387 261L479 270L556 282L560 276L550 227L478 224L393 217L414 96Q419 67 434
55T480 43Q565 43 587 58T619 137L664 141L667 136Q652 70 645 0L640 -5L604 -4Q567 -3 510 -2T414 0H385Q357 0 326 -1T278 -5L262 -7L260 -2L262 34ZM192 243L257 247L314 252L291 413H283L192 243Z" />
<glyph unicode="&#xe7;" glyph-name="ccedilla" horiz-adv-x="536" d="M247 -85L270 -9Q164 -4 103 60T41 233Q41 354 121 430T328 507Q358 507 394 503T452 493L474 488L478 482Q462 422 457 346L407 343Q409 363 409 382Q409 452 297 452Q219 452 174 401T129
259Q129 159 176 100T304 41Q407 41 434 159L484 163Q468 89 463 30L457 22Q397 -3 312 -8L298 -50Q302 -53 315 -62T335 -75T352 -89T368 -105T378 -121T383 -139Q383 -177 345 -205T263 -233Q238 -233 217 -223T195 -197T220 -141H229Q230 -168 245 -183T284
-198Q304 -198 318 -188T332 -160Q332 -134 247 -85Z" />
<glyph unicode="&#xe8;" glyph-name="egrave" horiz-adv-x="508" d="M193 90Q193 58 202 51T254 43Q319 43 346 49T386 74T405 137L449 141L453 136Q438 70 431 0L425 -5Q259 0 175 0Q146 0 116 -2T70 -6L54 -8L59 34Q96 38 109 52T122 100L123 417Q123 442 117
450T93 459L66 458L64 462L70 500Q141 498 193 498Q360 498 440 507L443 502Q429 440 424 368L376 364Q378 386 378 397Q378 434 359 442T258 451Q221 451 213 447T204 422L198 280Q206 280 236 280T280 279L379 287L383 282L371 230Q302 232 259 232Q231 232 196
227Q193 151 193 90ZM127 637L123 647L139 695L148 701Q253 641 347 592L341 568L333 563L127 637Z" />
<glyph unicode="&#xe9;" glyph-name="eacute" horiz-adv-x="508" d="M193 90Q193 58 202 51T254 43Q319 43 346 49T386 74T405 137L449 141L453 136Q438 70 431 0L425 -5Q259 0 175 0Q146 0 116 -2T70 -6L54 -8L59 34Q96 38 109 52T122 100L123 417Q123 442 117
450T93 459L66 458L64 462L70 500Q141 498 193 498Q360 498 440 507L443 502Q429 440 424 368L376 364Q378 386 378 397Q378 434 359 442T258 451Q221 451 213 447T204 422L198 280Q206 280 236 280T280 279L379 287L383 282L371 230Q302 232 259 232Q231 232 196
227Q193 151 193 90ZM415 647L411 637Q310 603 205 563L197 568L191 592L390 701L399 695L415 647Z" />
<glyph unicode="&#xea;" glyph-name="ecircumflex" horiz-adv-x="508" d="M193 90Q193 58 202 51T254 43Q319 43 346 49T386 74T405 137L449 141L453 136Q438 70 431 0L425 -5Q259 0 175 0Q146 0 116 -2T70 -6L54 -8L59 34Q96 38 109 52T122 100L123 417Q123 442
117 450T93 459L66 458L64 462L70 500Q141 498 193 498Q360 498 440 507L443 502Q429 440 424 368L376 364Q378 386 378 397Q378 434 359 442T258 451Q221 451 213 447T204 422L198 280Q206 280 236 280T280 279L379 287L383 282L371 230Q302 232 259 232Q231 232
196 227Q193 151 193 90ZM136 573L122 595L260 706H274Q347 644 412 595L398 573L389 572Q322 611 267 637Q215 613 145 572L136 573Z" />
<glyph unicode="&#xeb;" glyph-name="edieresis" horiz-adv-x="508" d="M193 90Q193 58 202 51T254 43Q319 43 346 49T386 74T405 137L449 141L453 136Q438 70 431 0L425 -5Q259 0 175 0Q146 0 116 -2T70 -6L54 -8L59 34Q96 38 109 52T122 100L123 417Q123 442
117 450T93 459L66 458L64 462L70 500Q141 498 193 498Q360 498 440 507L443 502Q429 440 424 368L376 364Q378 386 378 397Q378 434 359 442T258 451Q221 451 213 447T204 422L198 280Q206 280 236 280T280 279L379 287L383 282L371 230Q302 232 259 232Q231 232
196 227Q193 151 193 90ZM345 585Q326 585 315 598T304 628Q304 649 318 663T354 678Q373 678 384 666T395 635Q395 614 381 600T345 585ZM179 585Q160 585 149 598T138 628Q138 649 152 663T188 678Q207 678 218 666T229 635Q229 614 215 600T179 585Z" />
<glyph unicode="&#xec;" glyph-name="igrave" horiz-adv-x="319" d="M204 420Q193 224 193 93Q193 61 200 50T228 39L269 42L271 38L264 -2Q191 0 153 0Q134 0 109 -2T68 -6L53 -9L58 32Q96 39 109 52T122 99L123 417Q123 442 117 450T93 459L60 458L58 462L63
500Q65 500 83 500T126 499T165 498L265 505L261 464Q228 460 217 452T204 420ZM23 637L19 647L35 695L44 701Q149 641 243 592L237 568L229 563L23 637Z" />
<glyph unicode="&#xed;" glyph-name="iacute" horiz-adv-x="319" d="M204 420Q193 224 193 93Q193 61 200 50T228 39L269 42L271 38L264 -2Q191 0 153 0Q134 0 109 -2T68 -6L53 -9L58 32Q96 39 109 52T122 99L123 417Q123 442 117 450T93 459L60 458L58 462L63
500Q65 500 83 500T126 499T165 498L265 505L261 464Q228 460 217 452T204 420ZM310 647L306 637Q205 603 100 563L92 568L86 592L285 701L294 695L310 647Z" />
<glyph unicode="&#xee;" glyph-name="icircumflex" horiz-adv-x="319" d="M204 420Q193 224 193 93Q193 61 200 50T228 39L269 42L271 38L264 -2Q191 0 153 0Q134 0 109 -2T68 -6L53 -9L58 32Q96 39 109 52T122 99L123 417Q123 442 117 450T93 459L60 458L58 462L63
500Q65 500 83 500T126 499T165 498L265 505L261 464Q228 460 217 452T204 420ZM31 573L17 595L155 706H169Q242 644 307 595L293 573L284 572Q217 611 162 637Q110 613 40 572L31 573Z" />
<glyph unicode="&#xef;" glyph-name="idieresis" horiz-adv-x="319" d="M204 420Q193 224 193 93Q193 61 200 50T228 39L269 42L271 38L264 -2Q191 0 153 0Q134 0 109 -2T68 -6L53 -9L58 32Q96 39 109 52T122 99L123 417Q123 442 117 450T93 459L60 458L58 462L63
500Q65 500 83 500T126 499T165 498L265 505L261 464Q228 460 217 452T204 420ZM240 585Q221 585 210 598T199 628Q199 649 213 663T249 678Q268 678 279 666T290 635Q290 614 276 600T240 585ZM74 585Q55 585 44 598T33 628Q33 649 47 663T83 678Q102 678 113
666T124 635Q124 614 110 600T74 585Z" />
<glyph unicode="&#xf0;" glyph-name="eth" horiz-adv-x="605" d="M278 -9Q202 0 159 0Q140 0 116 -2T77 -6L62 -9L67 33Q108 40 119 55T130 124V233H24L18 238L25 270H130V417Q130 442 125 450T101 459L74 457L71 462L77 500Q136 498 168 498L294 501Q413 501
487 437T562 268Q562 150 481 71T278 -9ZM212 436L205 270H335L340 265L335 233H204L201 106Q201 66 220 53T295 39Q379 39 426 94T474 248Q474 349 414 401T240 454Q224 454 219 451T212 436Z" />
<glyph unicode="&#xf1;" glyph-name="ntilde" horiz-adv-x="614" d="M457 136H462L461 425Q461 458 434 458H404L402 462L409 501Q464 498 494 498L579 504L575 463Q521 456 520 413L508 -17L469 -28Q401 71 329 172T218 324L180 375H175L172 72Q172 53 178 46T198
39L238 40L241 37L233 -3Q177 0 142 0L59 -6L64 35Q113 41 114 84L125 414Q125 439 111 448T55 463L51 468L58 502Q107 498 134 498L195 501Q252 417 317 326T420 185L457 136ZM181 559H175L153 580V585L229 664L245 668Q262 668 320 652T391 635Q401 635 417 646T444
669L454 680H460L482 659V654L406 575L390 571Q373 571 315 587T244 604Q233 604 218 593T192 570L181 559Z" />
<glyph unicode="&#xf2;" glyph-name="ograve" horiz-adv-x="585" d="M295 39Q368 39 413 91T458 231Q458 331 410 391T284 451Q213 451 170 399T126 260Q126 160 172 100T295 39ZM271 -9Q168 -9 105 57T41 233Q41 351 118 429T311 507Q416 507 480 441T544 266Q544
148 466 70T271 -9ZM170 637L166 647L182 695L191 701Q296 641 390 592L384 568L376 563L170 637Z" />
<glyph unicode="&#xf3;" glyph-name="oacute" horiz-adv-x="585" d="M295 39Q368 39 413 91T458 231Q458 331 410 391T284 451Q213 451 170 399T126 260Q126 160 172 100T295 39ZM271 -9Q168 -9 105 57T41 233Q41 351 118 429T311 507Q416 507 480 441T544 266Q544
148 466 70T271 -9ZM438 647L434 637Q333 603 228 563L220 568L214 592L413 701L422 695L438 647Z" />
<glyph unicode="&#xf4;" glyph-name="ocircumflex" horiz-adv-x="585" d="M295 39Q368 39 413 91T458 231Q458 331 410 391T284 451Q213 451 170 399T126 260Q126 160 172 100T295 39ZM271 -9Q168 -9 105 57T41 233Q41 351 118 429T311 507Q416 507 480 441T544
266Q544 148 466 70T271 -9ZM169 573L155 595L293 706H307Q380 644 445 595L431 573L422 572Q355 611 300 637Q248 613 178 572L169 573Z" />
<glyph unicode="&#xf5;" glyph-name="otilde" horiz-adv-x="585" d="M295 39Q368 39 413 91T458 231Q458 331 410 391T284 451Q213 451 170 399T126 260Q126 160 172 100T295 39ZM271 -9Q168 -9 105 57T41 233Q41 351 118 429T311 507Q416 507 480 441T544 266Q544
148 466 70T271 -9ZM164 559H158L136 580V585L212 664L228 668Q245 668 303 652T374 635Q384 635 400 646T426 669L437 680H443L465 659V654L389 575L373 571Q356 571 298 587T227 604Q216 604 201 593T174 570L164 559Z" />
<glyph unicode="&#xf6;" glyph-name="odieresis" horiz-adv-x="585" d="M295 39Q368 39 413 91T458 231Q458 331 410 391T284 451Q213 451 170 399T126 260Q126 160 172 100T295 39ZM271 -9Q168 -9 105 57T41 233Q41 351 118 429T311 507Q416 507 480 441T544
266Q544 148 466 70T271 -9ZM378 585Q359 585 348 598T337 628Q337 649 351 663T387 678Q406 678 417 666T428 635Q428 614 414 600T378 585ZM212 585Q193 585 182 598T171 628Q171 649 185 663T221 678Q240 678 251 666T262 635Q262 614 248 600T212 585Z" />
<glyph unicode="&#xf7;" glyph-name="divide" horiz-adv-x="506" d="M482 297L488 287L480 236L253 235L24 234L18 243L29 292Q179 291 268 291L482 297ZM245 29Q218 29 204 45T189 86Q189 112 206 130T251 148Q278 148 293 132T308 91Q308 65 291 47T245 29ZM245
378Q218 378 204 394T189 435Q189 461 206 479T251 497Q278 497 293 481T308 440Q308 414 291 396T245 378Z" />
<glyph unicode="&#xf8;" glyph-name="oslash" horiz-adv-x="585" d="M90 -62L140 27Q41 92 41 233Q41 351 118 429T311 507Q358 507 403 491L438 553L465 545L467 535L433 476Q485 446 514 392T544 266Q544 148 466 70T271 -9Q216 -9 168 12L117 -77L92 -70L90
-62ZM295 39Q368 39 413 91T458 231Q458 347 394 408L201 70Q241 39 295 39ZM126 260Q126 154 177 93L367 429Q329 451 284 451Q213 451 170 399T126 260Z" />
<glyph unicode="&#xf9;" glyph-name="ugrave" horiz-adv-x="575" d="M169 191Q169 120 202 82T297 43Q425 43 425 166L421 417Q419 444 414 451T392 459L358 458L357 461L363 500Q425 498 456 498L540 504L537 464Q502 459 492 451T482 421V165Q482 82 429 37T277
-9Q188 -9 142 35T95 162V417Q95 442 89 450T65 459L38 458L36 461L42 500Q106 498 141 498L230 504L226 464Q197 460 187 451T175 420L169 191ZM155 637L151 647L167 695L176 701Q281 641 375 592L369 568L361 563L155 637Z" />
<glyph unicode="&#xfa;" glyph-name="uacute" horiz-adv-x="575" d="M169 191Q169 120 202 82T297 43Q425 43 425 166L421 417Q419 444 414 451T392 459L358 458L357 461L363 500Q425 498 456 498L540 504L537 464Q502 459 492 451T482 421V165Q482 82 429 37T277
-9Q188 -9 142 35T95 162V417Q95 442 89 450T65 459L38 458L36 461L42 500Q106 498 141 498L230 504L226 464Q197 460 187 451T175 420L169 191ZM432 647L428 637Q327 603 222 563L214 568L208 592L407 701L416 695L432 647Z" />
<glyph unicode="&#xfb;" glyph-name="ucircumflex" horiz-adv-x="575" d="M169 191Q169 120 202 82T297 43Q425 43 425 166L421 417Q419 444 414 451T392 459L358 458L357 461L363 500Q425 498 456 498L540 504L537 464Q502 459 492 451T482 421V165Q482 82 429
37T277 -9Q188 -9 142 35T95 162V417Q95 442 89 450T65 459L38 458L36 461L42 500Q106 498 141 498L230 504L226 464Q197 460 187 451T175 420L169 191ZM163 573L149 595L287 706H301Q374 644 439 595L425 573L416 572Q349 611 294 637Q242 613 172 572L163 573Z"
/>
<glyph unicode="&#xfc;" glyph-name="udieresis" horiz-adv-x="575" d="M169 191Q169 120 202 82T297 43Q425 43 425 166L421 417Q419 444 414 451T392 459L358 458L357 461L363 500Q425 498 456 498L540 504L537 464Q502 459 492 451T482 421V165Q482 82 429
37T277 -9Q188 -9 142 35T95 162V417Q95 442 89 450T65 459L38 458L36 461L42 500Q106 498 141 498L230 504L226 464Q197 460 187 451T175 420L169 191ZM372 585Q353 585 342 598T331 628Q331 649 345 663T381 678Q400 678 411 666T422 635Q422 614 408 600T372
585ZM206 585Q187 585 176 598T165 628Q165 649 179 663T215 678Q234 678 245 666T256 635Q256 614 242 600T206 585Z" />
<glyph unicode="&#xfd;" glyph-name="yacute" horiz-adv-x="475" d="M158 438Q158 422 244 250H249L335 404Q348 427 348 442Q348 461 299 464L297 467L302 503Q304 503 321 502T361 499T398 498L476 501L479 495L474 461Q436 453 420 436T368 360L287 222Q276
203 274 180T270 92Q269 63 277 52T307 40L347 42L349 39L341 -3Q267 0 229 0Q210 0 185 -2T143 -6L127 -9L133 32Q176 39 187 54T199 113V144Q199 186 175 230L100 374Q81 410 73 422T47 446T-1 460L-3 464L3 500Q60 498 97 498L217 504L220 498L217 465Q183 463
171 458T158 438ZM401 647L397 637Q296 603 191 563L183 568L177 592L376 701L385 695L401 647Z" />
<glyph unicode="&#xfe;" glyph-name="thorn" horiz-adv-x="473" d="M204 422Q204 417 204 411T203 402T202 395H268Q355 395 400 362T446 264Q446 203 388 159T251 114H193V88Q193 59 200 49T228 39L270 42L272 38L265 -2Q191 0 153 0Q134 0 109 -2T68 -6L53 -9L58
32Q96 39 109 52T122 99L123 417Q123 442 117 450T93 459L60 458L58 462L63 500Q65 500 83 500T126 499T165 498L265 505L261 464Q227 460 217 452T204 422ZM200 341Q194 221 194 169Q231 158 273 156Q366 168 366 252Q366 302 331 325T221 349Q201 349 200 341Z"
/>
<glyph unicode="&#xff;" glyph-name="ydieresis" horiz-adv-x="475" d="M158 438Q158 422 244 250H249L335 404Q348 427 348 442Q348 461 299 464L297 467L302 503Q304 503 321 502T361 499T398 498L476 501L479 495L474 461Q436 453 420 436T368 360L287 222Q276
203 274 180T270 92Q269 63 277 52T307 40L347 42L349 39L341 -3Q267 0 229 0Q210 0 185 -2T143 -6L127 -9L133 32Q176 39 187 54T199 113V144Q199 186 175 230L100 374Q81 410 73 422T47 446T-1 460L-3 464L3 500Q60 498 97 498L217 504L220 498L217 465Q183 463
171 458T158 438ZM330 585Q311 585 300 598T289 628Q289 649 303 663T339 678Q358 678 369 666T380 635Q380 614 366 600T330 585ZM164 585Q145 585 134 598T123 628Q123 649 137 663T173 678Q192 678 203 666T214 635Q214 614 200 600T164 585Z" />
</font>
</defs>
</svg>
